<svg width="49" height="48" viewBox="0 0 49 48" fill="none" xmlns="http://www.w3.org/2000/svg">
<g id="activity 1">
<path id="Vector" opacity="0.4" d="M33.1896 3.99866H16.4296C9.14957 3.99866 4.80957 8.33866 4.80957 15.6187V32.3587C4.80957 39.6587 9.14957 43.9987 16.4296 43.9987H33.1696C40.4496 43.9987 44.7896 39.6587 44.7896 32.3787V15.6187C44.8096 8.33866 40.4696 3.99866 33.1896 3.99866Z" fill="#495057"/>
<path id="Vector_2" d="M15.4698 30.4787C15.1498 30.4787 14.8298 30.3787 14.5498 30.1587C13.8898 29.6587 13.7698 28.7186 14.2698 28.0587L19.0298 21.8787C19.6098 21.1387 20.4298 20.6587 21.3698 20.5387C22.2898 20.4187 23.2298 20.6787 23.9698 21.2587L27.6298 24.1387C27.7698 24.2587 27.9098 24.2587 28.0098 24.2387C28.0898 24.2387 28.2298 24.1987 28.3498 24.0387L32.9698 18.0787C33.4698 17.4187 34.4298 17.2987 35.0698 17.8187C35.7298 18.3187 35.8498 19.2587 35.3298 19.9187L30.7098 25.8786C30.1298 26.6186 29.3098 27.0987 28.3698 27.1987C27.4298 27.3187 26.5098 27.0587 25.7698 26.4787L22.1098 23.5987C21.9698 23.4787 21.8098 23.4787 21.7298 23.4987C21.6498 23.4987 21.5098 23.5387 21.3898 23.6987L16.6298 29.8786C16.3698 30.2786 15.9298 30.4787 15.4698 30.4787Z" fill="#495057"/>
</g>
</svg>
