<svg width="26" height="25" viewBox="0 0 26 25" fill="none" xmlns="http://www.w3.org/2000/svg">
<g id="arrow-right 1">
<path id="Vector" opacity="0.4" d="M13.0098 22.5327C18.7246 22.5327 23.3575 18.0555 23.3575 12.5327C23.3575 7.00986 18.7246 2.53271 13.0098 2.53271C7.29493 2.53271 2.66211 7.00986 2.66211 12.5327C2.66211 18.0555 7.29493 22.5327 13.0098 22.5327Z" fill="#E65100"/>
<path id="Vector_2" d="M17.1802 12.0026L14.0759 9.00266C13.7758 8.71266 13.2791 8.71266 12.979 9.00266C12.679 9.29266 12.679 9.77266 12.979 10.0627L14.7588 11.7826H9.38838C8.96413 11.7826 8.6123 12.1226 8.6123 12.5326C8.6123 12.9426 8.96413 13.2826 9.38838 13.2826H14.7588L12.979 15.0026C12.679 15.2926 12.679 15.7726 12.979 16.0626C13.1343 16.2126 13.3309 16.2826 13.5275 16.2826C13.7241 16.2826 13.9207 16.2126 14.0759 16.0626L17.1802 13.0626C17.4803 12.7726 17.4803 12.2926 17.1802 12.0026Z" fill="#E65100"/>
</g>
</svg>
