<svg width="64" height="65" viewBox="0 0 64 65" fill="none" xmlns="http://www.w3.org/2000/svg">
<g id="cpu-setting 1">
<path id="Vector" opacity="0.4" d="M53.3332 24.4912V32.2778L51.2532 31.0778C49.5465 30.0912 47.4132 30.3845 46.0265 31.7178C45.7332 31.9845 45.4932 32.3045 45.2798 32.6512L45.1198 32.9445C44.8265 33.4512 44.5865 33.5845 44.5598 33.6112C44.5065 33.5845 44.2398 33.4512 43.9465 32.9178L43.7865 32.6512C43.1998 31.6378 42.2665 30.9445 41.1465 30.6512C39.9998 30.3312 38.8265 30.4912 37.8398 31.0778L35.4132 32.4912C34.3198 33.1045 33.5465 34.1178 33.2265 35.3178C32.9065 36.5445 33.0665 37.7978 33.6798 38.8912C33.9732 39.3712 33.9732 39.6645 33.9732 39.7178C33.9465 39.7445 33.6798 39.9045 33.0932 39.9045C30.5065 39.9045 28.3998 42.0112 28.3998 44.5712V47.0778C28.3998 49.6378 30.5065 51.7445 33.0932 51.7445C33.6798 51.7445 33.9465 51.9045 33.9465 51.9312C33.9732 51.9578 33.9732 52.2778 33.6798 52.7578C33.4932 53.1045 33.3332 53.4512 33.2532 53.8245H23.9998C16.6398 53.8245 10.6665 47.8512 10.6665 40.4912V24.4912C10.6665 17.1312 16.6398 11.1578 23.9998 11.1578H39.9998C47.3598 11.1578 53.3332 17.1312 53.3332 24.4912Z" fill="#00ABB6"/>
<path id="Vector_2" d="M46.0274 26.4645V31.7178C45.734 31.9845 45.494 32.3045 45.2807 32.6512L45.1207 32.9445C44.8274 33.4512 44.5874 33.5845 44.5607 33.6112C44.5074 33.5845 44.2407 33.4512 43.9474 32.9178L43.7874 32.6512C43.2007 31.6378 42.2674 30.9445 41.1474 30.6512C40.0007 30.3312 38.8274 30.4912 37.8407 31.0778L35.414 32.4912C34.3207 33.1045 33.5474 34.1178 33.2274 35.3178C32.9074 36.5445 33.0674 37.7978 33.6807 38.8912C33.974 39.3712 33.974 39.6645 33.974 39.7178C33.9474 39.7445 33.6807 39.9045 33.094 39.9045C30.5074 39.9045 28.4007 42.0112 28.4007 44.5712V46.5178H25.9741C21.5741 46.5178 17.9741 42.9178 17.9741 38.5178V26.4645C17.9741 22.0645 21.5741 18.4645 25.9741 18.4645H38.0274C42.4274 18.4645 46.0274 22.0645 46.0274 26.4645Z" fill="#00ABB6"/>
<path id="Vector_3" d="M24.1616 7.82458V11.1579H24.0016C22.6683 11.1579 21.3883 11.3446 20.1616 11.7179V7.82458C20.1616 6.73125 21.0416 5.82458 22.1616 5.82458C23.255 5.82458 24.1616 6.73125 24.1616 7.82458Z" fill="#00ABB6"/>
<path id="Vector_4" d="M34 7.82458V11.1579H30V7.82458C30 6.73125 30.9067 5.82458 32 5.82458C33.0933 5.82458 34 6.73125 34 7.82458Z" fill="#00ABB6"/>
<path id="Vector_5" d="M43.8647 7.82458V11.7179C42.6381 11.3446 41.3314 11.1579 39.9981 11.1579H39.8647V7.82458C39.8647 6.73125 40.7714 5.82458 41.8647 5.82458C42.9581 5.82458 43.8647 6.73125 43.8647 7.82458Z" fill="#00ABB6"/>
<path id="Vector_6" d="M58.6643 22.6246C58.6643 23.7446 57.7843 24.6246 56.6643 24.6246H53.331V24.4913C53.331 23.158 53.1443 21.8513 52.771 20.6246H56.6643C57.7843 20.6246 58.6643 21.5313 58.6643 22.6246Z" fill="#00ABB6"/>
<path id="Vector_7" d="M24.1616 53.8245V57.1579C24.1616 58.2512 23.255 59.1579 22.1616 59.1579C21.0416 59.1579 20.1616 58.2512 20.1616 57.1579V53.2645C21.3883 53.6379 22.6683 53.8245 24.0016 53.8245H24.1616Z" fill="#00ABB6"/>
<path id="Vector_8" d="M11.2268 20.6246C10.8535 21.8513 10.6668 23.158 10.6668 24.4913V24.6246H7.3335C6.24016 24.6246 5.3335 23.7446 5.3335 22.6246C5.3335 21.5313 6.24016 20.6246 7.3335 20.6246H11.2268Z" fill="#00ABB6"/>
<path id="Vector_9" d="M10.6668 30.4912V34.4912H7.3335C6.24016 34.4912 5.3335 33.5845 5.3335 32.4912C5.3335 31.3712 6.24016 30.4912 7.3335 30.4912H10.6668Z" fill="#00ABB6"/>
<path id="Vector_10" d="M11.2268 44.3579H7.3335C6.24016 44.3579 5.3335 43.4512 5.3335 42.3579C5.3335 41.2379 6.24016 40.3579 7.3335 40.3579H10.6668V40.4912C10.6668 41.8246 10.8535 43.1312 11.2268 44.3579Z" fill="#00ABB6"/>
<path id="Vector_11" opacity="0.4" d="M55.9742 41.9045C54.1609 41.9045 53.1209 40.9978 53.1209 39.6645C53.1209 39.1312 53.2809 38.5178 53.6542 37.8778C54.4009 36.5978 53.9475 34.9445 52.6675 34.2245L50.2409 32.8112C49.1209 32.1445 47.6809 32.5445 47.0142 33.6645L46.8542 33.9312C45.5742 36.1445 43.4942 36.1445 42.2142 33.9312L42.0542 33.6645C41.4142 32.5445 39.9475 32.1445 38.8542 32.8112L36.4009 34.2245C35.5475 34.7045 35.0409 35.6112 35.0409 36.5445C35.0409 36.9978 35.1742 37.4512 35.4142 37.8778C35.7875 38.5178 35.9742 39.1312 35.9742 39.6645C35.9742 40.9978 34.9075 41.9045 33.0942 41.9045C31.6275 41.9045 30.4009 43.1045 30.4009 44.5712V47.0778C30.4009 48.5445 31.6275 49.7445 33.0942 49.7445C34.9075 49.7445 35.9742 50.6512 35.9742 51.9845C35.9742 52.5178 35.7875 53.1312 35.4142 53.7712C34.6675 55.0512 35.1209 56.7045 36.4009 57.4245L38.8542 58.8378C39.9475 59.5045 41.4142 59.1045 42.0542 57.9845L42.2142 57.7178C43.4942 55.5045 45.5742 55.5045 46.8542 57.7178L47.0142 57.9845C47.6809 59.1045 49.1209 59.5045 50.2409 58.8378L52.6675 57.4245C53.5209 56.9445 54.0275 56.0378 54.0275 55.1045C54.0275 54.6512 53.8942 54.1978 53.6542 53.7712C53.2809 53.1312 53.1209 52.5178 53.1209 51.9845C53.1209 50.6512 54.1609 49.7445 55.9742 49.7445C57.4675 49.7445 58.6675 48.5445 58.6675 47.0778V44.5712C58.6675 43.1045 57.4675 41.9045 55.9742 41.9045ZM44.5342 50.4112C42.0009 50.4112 39.9475 48.3578 39.9475 45.8245C39.9475 43.2912 42.0009 41.2378 44.5342 41.2378C47.0675 41.2378 49.1209 43.2912 49.1209 45.8245C49.1209 48.3578 47.0675 50.4112 44.5342 50.4112Z" fill="#00ABB6"/>
<path id="Vector_12" d="M49.1216 45.8246C49.1216 48.3579 47.0682 50.4112 44.5349 50.4112C42.0016 50.4112 39.9482 48.3579 39.9482 45.8246C39.9482 43.2912 42.0016 41.2379 44.5349 41.2379C47.0682 41.2379 49.1216 43.2912 49.1216 45.8246Z" fill="#00ABB6"/>
</g>
</svg>
