<svg width="24" height="25" viewBox="0 0 24 25" fill="none" xmlns="http://www.w3.org/2000/svg">
<g id="document 1">
<path id="Vector" opacity="0.4" d="M20.5 10.2366H17.61C15.24 10.2366 13.31 8.30663 13.31 5.93663V3.04663C13.31 2.49663 12.86 2.04663 12.31 2.04663H8.07C4.99 2.04663 2.5 4.04663 2.5 7.61663V16.4766C2.5 20.0466 4.99 22.0466 8.07 22.0466H15.93C19.01 22.0466 21.5 20.0466 21.5 16.4766V11.2366C21.5 10.6866 21.05 10.2366 20.5 10.2366Z" fill="#6C757D"/>
<path id="Vector_2" d="M15.7997 2.25662C15.3897 1.84662 14.6797 2.12662 14.6797 2.69662V6.18662C14.6797 7.64662 15.9197 8.85662 17.4297 8.85662C18.3797 8.86662 19.6997 8.86662 20.8297 8.86662C21.3997 8.86662 21.6997 8.19662 21.2997 7.79662C19.8597 6.34662 17.2797 3.73662 15.7997 2.25662Z" fill="#6C757D"/>
</g>
</svg>
