<svg width="41" height="41" viewBox="0 0 41 41" fill="none" xmlns="http://www.w3.org/2000/svg">
<g id="email 1">
<path id="Vector" opacity="0.4" d="M28.5503 34.7389H11.8836C6.88363 34.7389 3.55029 32.2389 3.55029 26.4056V14.7389C3.55029 8.9056 6.88363 6.4056 11.8836 6.4056H28.5503C33.5503 6.4056 36.8836 8.9056 36.8836 14.7389V26.4056C36.8836 32.2389 33.5503 34.7389 28.5503 34.7389Z" fill="white"/>
<path id="Vector_2" d="M20.2183 22.0223C18.8183 22.0223 17.4016 21.5889 16.3182 20.7056L11.1015 16.5389C10.5682 16.1056 10.4682 15.3222 10.9016 14.7889C11.3349 14.2556 12.1182 14.1556 12.6516 14.5889L17.8683 18.7556C19.135 19.7723 21.2848 19.7723 22.5515 18.7556L27.7683 14.5889C28.3016 14.1556 29.1016 14.2389 29.5183 14.7889C29.9516 15.3222 29.8683 16.1222 29.3183 16.5389L24.1016 20.7056C23.035 21.5889 21.6183 22.0223 20.2183 22.0223Z" fill="white"/>
</g>
</svg>
