<svg width="44" height="27" viewBox="0 0 44 27" fill="none" xmlns="http://www.w3.org/2000/svg">
<path d="M0 25.7614L21.2417 0.422819C21.4398 0.287193 21.6818 0.232453 21.9186 0.269712C22.1553 0.306971 22.3691 0.433437 22.5165 0.623433C23.1522 1.30348 27.9267 7.26409 27.9267 7.26409C26.3685 7.26334 24.8306 7.61915 23.4295 8.30457C20.9645 9.46405 12.2135 15.2206 0 25.7614Z" fill="#416D77"/>
<path d="M8.63281 25.9857C8.63281 25.9857 11.933 23.1057 13.2856 22.021C14.6381 20.9364 25.5802 11.5041 29.3978 11.1845C29.3978 11.1845 30.6725 10.4636 31.785 11.9461C32.8975 13.4287 36.4006 17.5055 36.4006 17.5055C36.4006 17.5055 32.7791 17.1043 31.5449 17.3457C30.3107 17.5871 21.0458 19.1445 8.63281 25.9857Z" fill="#416D77"/>
<path d="M19.9702 26.2271L27.4701 23.6872C27.4701 23.6872 36.9379 20.4739 39.67 21.8238C39.67 21.8238 40.3869 22.5039 40.5965 22.7249C40.8062 22.9459 43.0142 25.6049 43.0142 25.6049C43.0142 25.6049 43.2509 26.727 41.9389 26.2271C40.627 25.7273 29.0593 24.2652 19.9702 26.2271Z" fill="#416D77"/>
</svg>
