<svg width="45" height="27" viewBox="0 0 45 27" fill="none" xmlns="http://www.w3.org/2000/svg">
<g id="logo 1" clipPath="url(#clip0_2469_4427)">
<path id="Vector" d="M0.56157 25.3647L20.5105 0.994392C20.611 0.871706 20.7376 0.77235 20.8814 0.703397C21.0252 0.634444 21.1826 0.597585 21.3424 0.595442C21.5022 0.593301 21.6606 0.625927 21.8061 0.691003C21.9517 0.756076 22.0809 0.851999 22.1845 0.971947L27.6913 7.34733C27.6913 7.34733 21.1043 8.64585 14.4576 13.9505C7.81084 19.2552 0.56157 25.3647 0.56157 25.3647Z" fill="#E65100"/>
<path id="Vector_2" d="M9.05585 26.087C9.05585 26.087 23.2283 12.1617 29.8655 10.9593C30.3183 10.8773 30.7805 11.041 31.0922 11.3751L36.4846 17.1603C36.4846 17.1603 24.8277 17.0161 9.05585 26.087Z" fill="#E65100"/>
<path id="Vector_3" d="M20.3705 26.0537C20.3705 26.0537 31.9813 20.732 38.6675 20.9803C38.8806 20.9898 39.0828 21.0748 39.2376 21.2195L44.3138 25.9013C44.3138 25.9013 30.0851 23.4236 20.3705 26.0537Z" fill="#E65100"/>
</g>
<defs>
<clipPath id="clip0_2469_4427">
<rect width="43.8496" height="25.9518" fill="white" transform="translate(0 1) rotate(-1.2958)"/>
</clipPath>
</defs>
</svg>
