<svg width="45" height="28" viewBox="0 0 45 28" fill="none" xmlns="http://www.w3.org/2000/svg">
<g id="logo 1" clipPath="url(#clip0_2307_39401)">
<path id="Vector" d="M0.56157 26.1634L20.5105 1.7931C20.611 1.67041 20.7376 1.57106 20.8814 1.5021C21.0252 1.43315 21.1826 1.39629 21.3424 1.39415C21.5022 1.39201 21.6606 1.42463 21.8061 1.48971C21.9517 1.55478 22.0809 1.65071 22.1845 1.77065L27.6913 8.14604C27.6913 8.14604 21.1043 9.44456 14.4576 14.7492C7.81084 20.0539 0.56157 26.1634 0.56157 26.1634Z" fill="#00ABB6"/>
<path id="Vector_2" d="M9.05561 26.8857C9.05561 26.8857 23.228 12.9604 29.8653 11.758C30.3181 11.676 30.7803 11.8397 31.092 12.1738L36.4844 17.959C36.4844 17.959 24.8274 17.8148 9.05561 26.8857Z" fill="#00ABB6"/>
<path id="Vector_3" d="M20.3703 26.8524C20.3703 26.8524 31.9811 21.5307 38.6673 21.779C38.8804 21.7885 39.0826 21.8735 39.2373 22.0183L44.3135 26.7C44.3135 26.7 30.0849 24.2223 20.3703 26.8524Z" fill="#00ABB6"/>
</g>
<defs>
<clipPath id="clip0_2307_39401">
<rect width="43.8496" height="25.9518" fill="white" transform="translate(0 1.79871) rotate(-1.2958)"/>
</clipPath>
</defs>
</svg>
