<svg width="41" height="41" viewBox="0 0 41 41" fill="none" xmlns="http://www.w3.org/2000/svg">
<g id="messages-2 1">
<path id="Vector" opacity="0.4" d="M30.9996 28.5426L31.6496 33.8093C31.8163 35.1926 30.333 36.1593 29.1496 35.4426L22.1663 31.2926C21.3996 31.2926 20.6498 31.2426 19.9165 31.1426C21.1498 29.6926 21.883 27.8593 21.883 25.8759C21.883 21.1426 17.783 17.3093 12.7164 17.3093C10.7831 17.3093 8.99972 17.8593 7.51639 18.8259C7.46639 18.4093 7.44971 17.9926 7.44971 17.5593C7.44971 9.97593 14.0331 3.82594 22.1663 3.82594C30.2996 3.82594 36.883 9.97593 36.883 17.5593C36.883 22.0593 34.5663 26.0426 30.9996 28.5426Z" fill="white"/>
<path id="Vector_2" d="M21.8836 25.8756C21.8836 27.8589 21.1503 29.6923 19.917 31.1423C18.267 33.1423 15.6503 34.4256 12.717 34.4256L8.36696 37.0089C7.63363 37.4589 6.70029 36.8423 6.80029 35.9923L7.21696 32.7089C4.98363 31.1589 3.55029 28.6756 3.55029 25.8756C3.55029 22.9423 5.11696 20.3589 7.51696 18.8256C9.00029 17.8589 10.7836 17.3089 12.717 17.3089C17.7836 17.3089 21.8836 21.1423 21.8836 25.8756Z" fill="white"/>
</g>
</svg>
