<svg width="64" height="65" viewBox="0 0 64 65" fill="none" xmlns="http://www.w3.org/2000/svg">
<g id="money-send 1">
<path id="Vector" opacity="0.4" d="M45.3335 21.4909C44.8268 21.4909 44.3202 21.3043 43.9202 20.9043C43.1468 20.1309 43.1468 18.8509 43.9202 18.0776L49.3868 12.6109C44.6935 8.61093 38.6402 6.15759 32.0002 6.15759C17.2802 6.15759 5.3335 18.1043 5.3335 32.8243C5.3335 47.5443 17.2802 59.4909 32.0002 59.4909C46.7202 59.4909 58.6668 47.5443 58.6668 32.8243C58.6668 26.1843 56.2135 20.1309 52.2135 15.4376L46.7468 20.9043C46.3468 21.3043 45.8402 21.4909 45.3335 21.4909Z" fill="#E65100"/>
<path id="Vector_2" d="M36.6668 32.3442L34.0002 31.4109V25.4909H34.2135C35.5735 25.4909 36.6668 26.6909 36.6668 28.1576C36.6668 29.2509 37.5735 30.1576 38.6668 30.1576C39.7602 30.1576 40.6668 29.2509 40.6668 28.1576C40.6668 24.4776 37.7868 21.4909 34.2135 21.4909H34.0002V20.8242C34.0002 19.7309 33.0935 18.8242 32.0002 18.8242C30.9068 18.8242 30.0002 19.7309 30.0002 20.8242V21.4909H29.2002C25.9735 21.4909 23.3335 24.2109 23.3335 27.5709C23.3335 31.4642 25.6002 32.7176 27.3335 33.3309L30.0002 34.2642V40.1842H29.7868C28.4268 40.1842 27.3335 38.9842 27.3335 37.5176C27.3335 36.4242 26.4268 35.5176 25.3335 35.5176C24.2402 35.5176 23.3335 36.4242 23.3335 37.5176C23.3335 41.1976 26.2135 44.1842 29.7868 44.1842H30.0002V44.8509C30.0002 45.9442 30.9068 46.8509 32.0002 46.8509C33.0935 46.8509 34.0002 45.9442 34.0002 44.8509V44.1842H34.8002C38.0268 44.1842 40.6668 41.4642 40.6668 38.1042C40.6668 34.1842 38.4002 32.9309 36.6668 32.3442ZM28.6402 29.5176C27.7335 29.1976 27.3335 29.0109 27.3335 27.5442C27.3335 26.3976 28.1868 25.4642 29.2002 25.4642H30.0002V29.9709L28.6402 29.5176ZM34.8002 40.1576H34.0002V35.6509L35.3602 36.1309C36.2668 36.4509 36.6668 36.6376 36.6668 38.1042C36.6668 39.2242 35.8135 40.1576 34.8002 40.1576Z" fill="#E65100"/>
<path id="Vector_3" d="M60.507 5.38483C60.2936 4.90483 59.9203 4.50483 59.4136 4.2915C59.1736 4.18483 58.907 4.13147 58.6403 4.13147H47.9736C46.8803 4.13147 45.9736 5.03814 45.9736 6.13147C45.9736 7.2248 46.8803 8.13147 47.9736 8.13147H53.8136L49.3606 12.5848C50.3739 13.4648 51.3072 14.3982 52.1872 15.4115L56.6403 10.9582V16.8248C56.6403 17.9182 57.547 18.8248 58.6403 18.8248C59.7336 18.8248 60.6403 17.9182 60.6403 16.8248V6.15816C60.667 5.8915 60.6136 5.6515 60.507 5.38483Z" fill="#E65100"/>
</g>
</svg>
