<svg width="49" height="48" viewBox="0 0 49 48" fill="none" xmlns="http://www.w3.org/2000/svg">
<g id="radar-2 1">
<path id="Vector" opacity="0.4" d="M24.8096 43.9987C35.8552 43.9987 44.8096 35.0443 44.8096 23.9987C44.8096 12.953 35.8552 3.99866 24.8096 3.99866C13.7639 3.99866 4.80957 12.953 4.80957 23.9987C4.80957 35.0443 13.7639 43.9987 24.8096 43.9987Z" fill="#495057"/>
<path id="Vector_2" d="M24.81 8.49866C21.43 8.49866 18.2101 9.57866 15.5101 11.5987C14.8501 12.0987 14.7101 13.0387 15.2101 13.6987C15.7101 14.3587 16.6501 14.4987 17.3101 13.9987C19.4901 12.3587 22.07 11.4987 24.81 11.4987C31.71 11.4987 37.31 17.0987 37.31 23.9987C37.31 30.8987 31.71 36.4987 24.81 36.4987C17.9101 36.4987 12.3101 30.8987 12.3101 23.9987C12.3101 22.3187 12.65 20.6587 13.29 19.1187L15.5701 20.4187C15.1301 21.5587 14.8901 22.7587 14.8901 23.9987C14.8901 29.4587 19.33 33.8987 24.79 33.8987C30.25 33.8987 34.69 29.4587 34.69 23.9987C34.69 18.5387 30.25 14.0987 24.79 14.0987C23.31 14.0987 21.89 14.4187 20.5701 15.0387C19.8301 15.3987 19.49 16.2787 19.85 17.0387C20.21 17.7787 21.09 18.0987 21.85 17.7587C22.77 17.3187 23.75 17.0987 24.79 17.0987C28.59 17.0987 31.69 20.1987 31.69 23.9987C31.69 27.7987 28.59 30.8987 24.79 30.8987C20.99 30.8987 17.8901 27.7987 17.8901 23.9987C17.8901 23.2987 18.0301 22.6187 18.2301 21.9587L24.05 25.2987C24.77 25.7187 25.6902 25.4587 26.0902 24.7387C26.5102 24.0187 26.25 23.0987 25.53 22.6987L13.3901 15.7187C12.6701 15.2987 11.75 15.5587 11.35 16.2787C10.01 18.6187 9.29004 21.2787 9.29004 23.9987C9.29004 32.5387 16.25 39.4987 24.79 39.4987C33.33 39.4987 40.29 32.5387 40.29 23.9987C40.29 15.4587 33.35 8.49866 24.81 8.49866Z" fill="#495057"/>
</g>
</svg>
