<svg width="64" height="65" viewBox="0 0 64 65" fill="none" xmlns="http://www.w3.org/2000/svg">
<g id="share 1">
<path id="Vector" opacity="0.4" d="M54.2913 34.4382C53.3046 34.4382 52.478 33.6915 52.3713 32.7048C51.7313 26.8381 48.5846 21.5581 43.7313 18.1981C42.8513 17.5847 42.638 16.3847 43.2513 15.5047C43.8646 14.6247 45.0646 14.4114 45.9446 15.0247C51.7313 19.0514 55.4646 25.3447 56.238 32.3048C56.3446 33.3715 55.5713 34.3315 54.5046 34.4382C54.4246 34.4382 54.3713 34.4382 54.2913 34.4382Z" fill="#E65100"/>
<path id="Vector_2" opacity="0.4" d="M9.97182 34.5712C9.91849 34.5712 9.83849 34.5712 9.78516 34.5712C8.71849 34.4646 7.94516 33.5046 8.05182 32.4379C8.77182 25.4778 12.4518 19.1845 18.1852 15.1311C19.0385 14.5178 20.2652 14.7311 20.8785 15.5845C21.4918 16.4645 21.2785 17.6645 20.4252 18.2778C15.6252 21.6911 12.5052 26.9711 11.9185 32.8112C11.8118 33.8246 10.9585 34.5712 9.97182 34.5712Z" fill="#E65100"/>
<path id="Vector_3" opacity="0.4" d="M42.6413 56.7582C39.3613 58.3315 35.8413 59.1315 32.1613 59.1315C28.3213 59.1315 24.6679 58.2782 21.2546 56.5449C20.2946 56.0915 19.9212 54.9182 20.4012 53.9582C20.8546 52.9982 22.0279 52.6249 22.9879 53.0782C24.6679 53.9315 26.4546 54.5182 28.2679 54.8649C30.7213 55.3449 33.2279 55.3715 35.6813 54.9449C37.4946 54.6249 39.2813 54.0649 40.9346 53.2649C41.9213 52.8115 43.0946 53.1849 43.5213 54.1715C44.0013 55.1315 43.6279 56.3049 42.6413 56.7582Z" fill="#E65100"/>
<path id="Vector_4" d="M32.1343 5.8512C28.001 5.8512 24.6143 9.2112 24.6143 13.3712C24.6143 17.5312 27.9743 20.8912 32.1343 20.8912C36.2943 20.8912 39.6543 17.5312 39.6543 13.3712C39.6543 9.2112 36.2943 5.8512 32.1343 5.8512Z" fill="#E65100"/>
<path id="Vector_5" d="M13.4682 37.4781C9.33491 37.4781 5.94824 40.8381 5.94824 44.9981C5.94824 49.1581 9.30824 52.5181 13.4682 52.5181C17.6282 52.5181 20.9882 49.1581 20.9882 44.9981C20.9882 40.8381 17.6016 37.4781 13.4682 37.4781Z" fill="#E65100"/>
<path id="Vector_6" d="M50.5356 37.4781C46.4023 37.4781 43.0156 40.8381 43.0156 44.9981C43.0156 49.1581 46.3756 52.5181 50.5356 52.5181C54.6956 52.5181 58.0556 49.1581 58.0556 44.9981C58.0556 40.8381 54.6956 37.4781 50.5356 37.4781Z" fill="#E65100"/>
</g>
</svg>
