<?xml version="1.0" encoding="UTF-8" standalone="no"?>
<svg
   xmlns:osb="http://www.openswatchbook.org/uri/2009/osb"
   xmlns:dc="http://purl.org/dc/elements/1.1/"
   xmlns:cc="http://creativecommons.org/ns#"
   xmlns:rdf="http://www.w3.org/1999/02/22-rdf-syntax-ns#"
   xmlns:svg="http://www.w3.org/2000/svg"
   xmlns="http://www.w3.org/2000/svg"
   xmlns:xlink="http://www.w3.org/1999/xlink"
   xmlns:sodipodi="http://sodipodi.sourceforge.net/DTD/sodipodi-0.dtd"
   xmlns:inkscape="http://www.inkscape.org/namespaces/inkscape"
   version="1.1"
   id="Layer_1"
   x="0px"
   y="0px"
   viewBox="0 0 266.39049 67.98529"
   xml:space="preserve"
   sodipodi:docname="uk_field_service_white-white.svg"
   inkscape:version="0.92.4 (5da689c313, 2019-01-14)"
   width="266.39047"
   height="67.985291"><metadata
   id="metadata5232"><rdf:RDF><cc:Work
       rdf:about=""><dc:format>image/svg+xml</dc:format><dc:type
         rdf:resource="http://purl.org/dc/dcmitype/StillImage" /><dc:title></dc:title></cc:Work></rdf:RDF></metadata><defs
   id="defs5230"><linearGradient
   id="linearGradient2903"
   osb:paint="solid"><stop
     style="stop-color:#e6e6e6;stop-opacity:1;"
     offset="0"
     id="stop2901" /></linearGradient><clipPath
   id="SVGID_2_"><use
     xlink:href="#SVGID_1_"
     overflow="visible"
     id="use3660"
     x="0"
     y="0"
     width="100%"
     height="100%"
     style="overflow:visible" /></clipPath><clipPath
   id="SVGID_4_"><use
     xlink:href="#SVGID_3_"
     overflow="visible"
     id="use3708"
     x="0"
     y="0"
     width="100%"
     height="100%"
     style="overflow:visible" /></clipPath><path
   id="SVGID_1_"
   d="m 168.813,250.22 v 20.941 c 0,6.339 2.498,9.413 6.533,9.413 4.419,0 6.724,-3.074 6.724,-9.413 V 250.22 h 8.262 v 20.364 c 0,11.336 -5.765,16.521 -15.178,16.521 -9.222,0 -14.601,-5.186 -14.601,-16.713 V 250.22 Z"
   inkscape:connector-curvature="0" /><path
   id="SVGID_3_"
   d="m 197.104,250.22 h 8.261 v 16.138 h 0.192 c 0.768,-1.345 1.729,-2.689 2.498,-4.033 l 8.261,-12.104 h 10.183 l -12.104,15.562 12.681,20.94 h -9.606 l -9.029,-15.753 -3.074,3.842 v 11.911 h -8.069 V 250.22 Z"
   inkscape:connector-curvature="0" />
		
		
		
		
		
		
		
		
		
		
		
		
		
		
	<clipPath
   id="SVGID_2_-1"><use
     xlink:href="#SVGID_1_"
     overflow="visible"
     id="use3660-2"
     x="0"
     y="0"
     width="100%"
     height="100%"
     style="overflow:visible" /></clipPath><clipPath
   id="SVGID_4_-9"><use
     xlink:href="#SVGID_3_"
     overflow="visible"
     id="use3708-6"
     x="0"
     y="0"
     width="100%"
     height="100%"
     style="overflow:visible" /></clipPath><path
   id="path5460-2"
   d="m 168.813,250.22 v 20.941 c 0,6.339 2.498,9.413 6.533,9.413 4.419,0 6.724,-3.074 6.724,-9.413 V 250.22 h 8.262 v 20.364 c 0,11.336 -5.765,16.521 -15.178,16.521 -9.222,0 -14.601,-5.186 -14.601,-16.713 V 250.22 Z"
   inkscape:connector-curvature="0" /><path
   id="path5486-1"
   d="m 197.104,250.22 h 8.261 v 16.138 h 0.192 c 0.768,-1.345 1.729,-2.689 2.498,-4.033 l 8.261,-12.104 h 10.183 l -12.104,15.562 12.681,20.94 h -9.606 l -9.029,-15.753 -3.074,3.842 v 11.911 h -8.069 V 250.22 Z"
   inkscape:connector-curvature="0" /><clipPath
   clipPathUnits="userSpaceOnUse"
   id="clipPath939"><g
     inkscape:label="Clip"
     id="use941"
     style="fill:#ff0000"><path
       style="fill:#ff0000;stroke:#000000;strokeWidth:12.3757px;strokeLinecap:butt;strokeLinejoin:miter;stroke-opacity:1"
       d="m -4033.6575,-1562.9888 507.4805,390.5946 -625.6333,-0.2602 151.8859,-350.6228 19.4862,-31.6939 4.7594,170.1548 -11.5022,-125.41"
       id="path958"
       inkscape:connector-curvature="0" /></g></clipPath></defs><sodipodi:namedview
   pagecolor="#ffffff"
   bordercolor="#666666"
   borderopacity="1"
   objecttolerance="10"
   gridtolerance="10"
   guidetolerance="10"
   inkscape:pageopacity="0"
   inkscape:pageshadow="2"
   inkscape:window-width="1920"
   inkscape:window-height="1017"
   id="namedview5228"
   showgrid="false"
   inkscape:zoom="1"
   inkscape:cx="354.24847"
   inkscape:cy="121.61879"
   inkscape:window-x="1592"
   inkscape:window-y="32"
   inkscape:window-maximized="1"
   inkscape:current-layer="Layer_1"
   fit-margin-top="0"
   fit-margin-left="0"
   fit-margin-right="0"
   fit-margin-bottom="0"
   inkscape:document-rotation="0"
   inkscape:pagecheckerboard="true"
   units="px" />
<style
   type="text/css"
   id="style5075">
	.st0{opacity:0.46;fill:#24A4B3;}
	.st1{fill:#24A4B3;}
	.st2{fill:#FFFFFF;stroke:#E6E6E6;strokeWidth:0.25;strokeMiterlimit:10;}
	.st3{fill:#FFFFFF;}
	.st4{fill:#EF081F;}
	.st5{fill:#001F80;}
</style>






<polygon
   class="st0"
   points=""
   id="polygon5077"
   transform="translate(-5.7285709,18.877356)"
   style="opacity:0.46000001;fill:#24a4b3" /><path
   d="m 261.74225,26.576782 q -0.73226,0 -1.3639,0.262719 -0.63163,0.262717 -1.15707,0.788153 -0.52543,0.525434 -0.79375,1.168254 -0.26829,0.637231 -0.26829,1.363898 0,0.721076 0.26829,1.358306 0.26832,0.631641 0.79375,1.157075 0.52544,0.525436 1.15707,0.793745 0.63164,0.262716 1.3639,0.262716 0.73784,0 1.36949,-0.262716 0.63724,-0.268309 1.16267,-0.793745 0.51984,-0.519844 0.77697,-1.151486 0.26272,-0.63164 0.26272,-1.363895 0,-0.743437 -0.26272,-1.375077 -0.26272,-0.637231 -0.77697,-1.157075 -0.52543,-0.525436 -1.16267,-0.788153 -0.63165,-0.262719 -1.36949,-0.262719 z m 0,-0.575743 q 0.84965,0 1.5819,0.307437 0.73785,0.307433 1.34712,0.916716 0.60929,0.609282 0.91113,1.341536 0.30185,0.732257 0.30185,1.593078 0,0.84964 -0.30185,1.581896 -0.30184,0.726665 -0.91113,1.335947 -0.60927,0.609283 -1.34712,0.916716 -0.73225,0.307437 -1.5819,0.307437 -0.84964,0 -1.58748,-0.307437 -0.73226,-0.307433 -1.34154,-0.916716 -0.60929,-0.609282 -0.91114,-1.335947 -0.30183,-0.732256 -0.30183,-1.581896 0,-0.860821 0.30183,-1.593078 0.30185,-0.732254 0.91114,-1.341536 0.60928,-0.609283 1.34154,-0.916716 0.73784,-0.307437 1.58748,-0.307437 z m -0.15092,2.314152 h -0.68753 v 1.542769 h 0.68753 q 0.61486,0 0.85524,-0.173282 0.24595,-0.173282 0.24595,-0.592513 0,-0.42482 -0.24595,-0.598102 -0.24597,-0.178872 -0.85524,-0.178872 z m 0.0391,-0.575744 q 0.98379,0 1.47011,0.335386 0.4863,0.329794 0.4863,1.006153 0,0.480717 -0.29626,0.793743 -0.29066,0.313025 -0.82727,0.408051 0.13415,0.04472 0.31861,0.262717 0.19005,0.21241 0.44718,0.620461 l 0.7658,1.246513 h -0.96144 l -0.72107,-1.168256 q -0.3298,-0.536614 -0.53663,-0.676359 -0.20121,-0.145333 -0.50306,-0.145333 h -0.36893 v 1.989948 h -0.86641 v -4.673024 z"
   id="path917"
   inkscape:connector-curvature="0"
   inkscape:label="trademark"
   style="fill:#ffffff;fill-opacity:1;stroke:#e6e6e6;strokeWidth:0.28619468;stroke-opacity:1" /><style
   type="text/css"
   id="style1408">
	.st0{fill:#FFFFFF;}
	.st1{fill:#C8102E;}
	.st2{fill:#012169;}
	.st3{font-family:'ArialMT';}
	.st4{font-size:37px;}
</style><g
   id="g2057"
   transform="matrix(0.06302235,-0.01055625,0.01832628,0.06032421,222.7695,-5.5322099)"><g
     id="g1093"
     transform="matrix(1.0418922,0.00733079,-0.2393947,0.95810786,93.798788,67.130867)"><g
       id="g951"
       clipPath="none"
       transform="matrix(-1.0055469,0.20694686,-0.20145353,-0.95302345,-5428.4183,-430.54162)"
       inkscape:transform-center-x="5.7764783"
       inkscape:transform-center-y="4.2409431"><g
         inkscape:label="Clip"
         id="g949"><g
           id="g4111"
           transform="matrix(0.9214374,0.2915818,-0.28384189,0.99544136,-2983.0132,-421.5874)"
           style="opacity:1;fill-rule:nonzero"><g
             id="g4104"
             style="fill-rule:nonzero"
             transform="translate(-70.121768,-661.09328)"><path
               class="st0"
               d="m 635.9,368.8 c -6,5.1 -11.9,10.1 -18.2,14.8 -9,6.8 -18.7,12.8 -28.8,17.9 -9.4,4.8 -19.1,8.8 -29.1,11.9 -11,3.4 -22.4,5.7 -33.9,6.8 -14.8,1.5 -29.8,1.1 -44.6,-0.7 -14.9,-1.8 -29.5,-5 -43.9,-9.2 -15.1,-4.3 -30,-9.6 -44.6,-15.4 -16,-6.3 -31.8,-13.3 -47.6,-20.3 -15.3,-6.8 -30.7,-13.6 -45.9,-20.6 -14.2,-6.5 -28.4,-13.3 -43,-18.8 -19.1,-7.3 -39.1,-12.6 -59.3,-16.3 -15.6,-2.9 -31.3,-4.8 -47.1,-4.6 -19.5,0.3 -39.1,3.8 -57.5,10.4 -12.7,4.6 -24.8,10.6 -36.1,17.8 -11.3,7.2 -21.9,15.7 -32.3,24.2 4,-100 8,-200 11.9,-300 6.5,-5.5 12.9,-10.9 19.7,-15.9 9.2,-6.7 19.1,-12.6 29.4,-17.6 8.8,-4.2 17.8,-7.7 27.1,-10.4 9.1,-2.6 18.6,-4.4 28,-5.5 12.3,-1.3 24.7,-1.3 37,-0.3 12.9,1.1 25.6,3.5 38.2,6.6 14.5,3.6 28.7,8.2 42.6,13.4 10.6,3.9 21.1,8.2 31.5,12.6 14.3,6.1 28.5,12.5 42.6,18.9 10.5,4.7 21,9.5 31.6,14 15.2,6.6 30.6,12.9 46.3,18.4 16.6,5.8 33.5,10.8 50.9,14 16.4,3 33.2,4.5 49.9,3.5 13.4,-0.8 26.7,-3.1 39.5,-7 10.3,-3.1 20.3,-7.3 29.8,-12.3 10.1,-5.2 19.7,-11.4 28.6,-18.3 5.2,-4 10.2,-8.3 15.2,-12.6 4.2,100.6 8.1,200.6 12.1,300.6 z"
               id="path1415"
               style="opacity:1;fill:#ffffff;fill-rule:nonzero;stroke:#ffffff;stroke-opacity:1"
               inkscape:connector-curvature="0" /><g
               id="g2051"
               style="fill-rule:nonzero"><path
                 class="st2"
                 d="m 258.1,37.3 c 7.7,2.8 15.3,5.9 22.8,9 -0.1,15.2 -0.2,30.4 -0.3,45.6 -0.1,15.2 -0.2,30.4 -0.3,45.6 -2.9,-2.7 -5.9,-5.4 -8.8,-8.1 -4.6,-4.1 -9.1,-8.2 -13.7,-12.3 -6.8,-6 -13.7,-11.9 -20.7,-17.7 -7.8,-6.4 -15.7,-12.7 -23.8,-18.8 -8.7,-6.5 -17.6,-12.8 -26.7,-18.7 -7.7,-5 -15.6,-9.6 -23.6,-14 -7.6,-4 -15.4,-7.8 -23.4,-11 -7.4,-3 -14.9,-5.5 -22.6,-7.5 -4.1,-1.1 -8.3,-2 -12.5,-2.7 -0.9,-0.1 -1.8,-0.3 -2.7,-0.4 3.5,-1.3 7,-2.4 10.5,-3.4 9.1,-2.6 18.6,-4.4 28,-5.5 12.3,-1.3 24.7,-1.3 37,-0.3 12.9,1.1 25.6,3.5 38.2,6.6 14.4,3.8 28.6,8.5 42.6,13.6 z M 89.7,129.4 c 7.2,-3 14.5,-5.6 22,-7.6 8.1,-2.2 16.3,-3.7 24.6,-4.7 5.9,-0.7 11.9,-1.1 17.9,-1.2 3.3,0 6.5,0 9.8,0.1 -3.3,-1.7 -6.6,-3.4 -9.9,-5.1 -4.5,-2.2 -9,-4.3 -13.7,-6.2 -7.1,-2.9 -14.4,-5.5 -21.8,-7.5 -6.1,-1.7 -12.2,-3 -18.4,-4 -7.6,-1.1 -15.3,-1.6 -22.9,-1.5 -8.9,0.2 -17.8,1.3 -26.4,3.5 -5.5,1.4 -10.9,3.3 -16.3,5.2 -0.9,22.1 -1.8,44.3 -2.6,66.4 6.7,-5.7 13.5,-11.3 20.6,-16.5 11.4,-8.3 24,-15.4 37.1,-20.9 z M 134,229.8 c 4.8,-2.9 9.6,-5.6 14.6,-8.1 4.3,-2.2 8.7,-4.3 13.1,-6.4 -7.7,0 -15.5,0 -23.2,0.6 -10.8,0.8 -21.5,2.9 -31.9,5.9 -9,2.6 -17.8,5.8 -26.2,9.8 -9,4.2 -17.6,9.1 -25.8,14.6 -6.3,4.2 -12.4,8.7 -18.3,13.6 -2.8,2.3 -5.6,4.8 -8.4,7.2 -0.9,22.1 -1.8,44.3 -2.6,66.5 1.3,-1.8 2.6,-3.5 3.9,-5.3 C 33.1,323 37,318 41.1,313 c 6.8,-8.3 13.8,-16.4 21.1,-24.2 6.5,-6.9 13.2,-13.6 20.2,-20 9,-8.3 18.5,-16.2 28.4,-23.4 7.6,-5.7 15.3,-10.8 23.2,-15.6 z m 75.9,35.1 c -16,4 -31.7,9.2 -46.8,15.8 -14.3,6.3 -28.1,13.7 -41.2,22.3 -6.7,4.4 -13.2,9 -19.5,13.9 -2.8,2.1 -5.5,4.2 -8.1,6.5 -0.7,0.5 -1.3,1.1 -2,1.7 0,0 0.1,0 0.1,-0.1 18.4,-6.6 38,-10.1 57.5,-10.4 15.8,-0.2 31.5,1.7 47.1,4.6 20.2,3.7 40.1,9 59.3,16.3 7.6,2.9 15.1,6.1 22.6,9.5 0.2,-30.2 0.4,-60.4 0.6,-90.6 -7.7,0.7 -15.4,1.4 -23.2,2.3 -15.5,1.7 -31.1,4.4 -46.4,8.2 z m 296,126.2 c -11.7,-5.8 -22.9,-12.3 -33.8,-19.4 -11.4,-7.4 -22.5,-15.4 -33.3,-23.7 -16.3,-12.5 -31.9,-25.8 -47.2,-39.5 -3.7,-3.3 -7.5,-6.7 -11.2,-10 0.1,17.8 0.2,35.7 0.3,53.5 0.1,12.7 0.2,25.4 0.3,38.2 3.9,1.6 7.9,3.3 11.9,4.8 14.6,5.8 29.5,11.1 44.6,15.4 14.4,4.1 29.1,7.3 43.9,9.2 14.8,1.8 29.8,2.2 44.6,0.7 11.5,-1.2 22.9,-3.4 33.9,-6.8 2.6,-0.8 5.1,-1.6 7.6,-2.5 -8.2,-1.5 -16.3,-3 -24.3,-5.1 -12.9,-3.6 -25.3,-8.8 -37.3,-14.8 z m 126,-122.3 c -2.8,2.4 -5.5,4.8 -8.4,7.2 -4.9,4.1 -10,7.9 -15.3,11.5 -7.2,5 -14.7,9.5 -22.5,13.6 -9.3,4.8 -19.1,8.8 -29.1,11.9 -10.4,3.2 -21.2,5.5 -32.1,6.5 -8.8,0.9 -17.6,0.9 -26.5,0.9 5.6,2.8 11.2,5.6 16.9,8.2 7.6,3.4 15.3,6.3 23.2,8.7 10.2,3.1 20.7,5.5 31.4,6.6 7,0.8 14,1 21,0.7 5.7,-0.3 11.5,-0.9 17.1,-1.8 4.5,-0.8 9,-1.8 13.4,-3 3.1,-0.9 6.1,-1.8 9.2,-2.9 1.4,-0.5 2.9,-1.1 4.3,-1.6 -0.8,-22.2 -1.7,-44.3 -2.6,-66.5 z m -197.3,-96 c 11.7,-2.7 23.2,-6 34.5,-10 10.3,-3.7 20.3,-8 30.1,-13 7,-3.6 13.9,-7.5 20.5,-11.6 7.8,-4.9 15.3,-10.1 22.6,-15.8 5.4,-4.3 10.7,-8.7 16,-13.2 -2.6,0.9 -5.3,1.8 -7.9,2.6 -12.8,3.9 -26.1,6.2 -39.5,7 -16.7,1 -33.5,-0.5 -49.9,-3.5 -17.3,-3.2 -34.3,-8.2 -50.9,-14 -10.5,-3.7 -20.8,-7.7 -31.1,-12 0.2,30.6 0.4,61.2 0.6,91.7 7.6,-0.8 15.1,-1.5 22.7,-2.5 10.8,-1.4 21.6,-3.3 32.3,-5.7 z m 61.3,46.9 c 7.5,0 14.9,0 22.4,-0.5 9.6,-0.7 19.1,-2.4 28.4,-4.9 12.7,-3.3 25,-8.1 36.6,-14.2 9.3,-4.8 18.3,-10.4 26.7,-16.7 6.2,-4.6 12.1,-9.6 18,-14.7 -0.9,-22.2 -1.8,-44.3 -2.6,-66.5 -5.6,7.8 -11.2,15.5 -17.1,23.1 -6.3,8.1 -12.9,15.9 -19.8,23.4 -8.1,8.8 -16.5,17.3 -25.4,25.4 -9.7,8.8 -19.8,17 -30.6,24.3 -11.7,8 -24.2,14.6 -36.6,21.3 z"
                 id="path1423"
                 style="fill:#012169;fill-rule:nonzero"
                 inkscape:connector-curvature="0" /></g><path
               class="st1"
               d="m 44.6,86.2 c -3.2,0.9 -6.5,1.9 -9.6,3.1 0.3,-7.5 0.6,-14.9 0.9,-22.3 9.2,-2.9 18.5,-5.9 28,-7.4 12,-1.9 24.5,-1.6 36.6,0.3 8.9,1.3 17.6,3.5 26.2,6.2 9.6,3.1 19,7.1 28.1,11.5 5.7,2.8 11.3,5.8 16.8,8.9 7.7,4.4 15.1,9.2 22.5,14.1 6.3,4.2 12.4,8.6 18.4,13.2 6.1,4.6 12.1,9.4 18.1,14.1 -2.2,-0.6 -4.4,-1.2 -6.6,-1.8 -4.6,-1.2 -9.2,-2.5 -13.8,-3.6 -4.7,-1.1 -9.4,-1.9 -14.2,-2.9 -3.2,-0.6 -6.5,-1.3 -9.8,-1.8 -1.6,-1 -3.2,-2 -4.8,-3 -3.9,-2.5 -7.9,-4.8 -11.9,-7.1 -6.1,-3.4 -12.2,-6.7 -18.5,-9.6 -6.7,-3.2 -13.6,-6 -20.6,-8.5 -7.7,-2.7 -15.6,-4.9 -23.6,-6.4 -9,-1.8 -18.1,-2.7 -27.2,-2.6 -6.1,0 -12.3,0.5 -18.3,1.6 -5.7,1 -11.2,2.4 -16.7,4 z m 205.5,148.1 c -4.3,-1.5 -8.5,-3 -12.8,-4.4 -2.6,-0.8 -5.3,-1.7 -7.9,-2.5 v 0 c -5.6,1.2 -11.2,2.3 -16.8,3.6 -9.3,2.2 -18.5,4.9 -27.6,8.1 -13.8,4.8 -27.3,10.7 -40.2,17.5 -12.1,6.5 -23.7,13.8 -34.8,21.9 -18.4,13.4 -35.3,29 -50.8,45.7 -4.4,4.8 -8.7,9.6 -12.9,14.5 -4.3,5 -8.5,10.2 -12.5,15.4 -2.8,3.6 -5.5,7.2 -8.2,10.8 -0.5,0.7 -1,1.3 -1.4,2 10.5,-8.6 21,-17 32.3,-24.2 4.3,-2.7 8.6,-5.3 13.1,-7.6 0.5,-0.5 0.7,-0.7 0.9,-0.9 4,-3.9 8,-7.8 12.2,-11.5 11.8,-10.6 24.3,-20.5 37.5,-29.3 12.7,-8.4 26,-15.9 39.8,-22.2 12.4,-5.6 25.3,-10.3 38.3,-14.1 15.4,-4.5 31.2,-7.7 47,-10 7.5,-1.1 15,-2 22.6,-2.8 2.2,-0.2 4.3,-0.4 6.5,-0.6 -3.3,-1.3 -6.6,-2.6 -9.9,-3.9 -4.8,-2 -9.6,-3.8 -14.4,-5.5 z M 635,346.5 c -1.3,0.5 -2.5,1 -3.8,1.4 -2.9,1.1 -5.8,2 -8.8,2.9 -5.8,1.7 -11.6,2.9 -17.6,3.8 -6.6,1 -13.3,1.5 -20,1.5 -9.3,0 -18.6,-1 -27.7,-2.7 -7.3,-1.4 -14.4,-3.3 -21.4,-5.6 -7.3,-2.4 -14.5,-5.2 -21.5,-8.3 -5.3,-2.4 -10.5,-4.9 -15.6,-7.6 -5.5,-2.9 -11,-6 -16.3,-9.2 -2.3,-1.4 -4.5,-2.8 -6.7,-4.1 -1.2,-0.2 -2.3,-0.3 -3.5,-0.5 -3.1,-0.5 -6.2,-1 -9.3,-1.6 -3.5,-0.7 -7,-1.4 -10.5,-2.2 -4.4,-1 -8.8,-2.1 -13.2,-3.3 -2.8,-0.8 -5.7,-1.6 -8.5,-2.5 8.3,6.4 16.6,12.9 25.2,19 12.3,8.8 25.1,17.1 38.4,24.4 12.4,6.8 25.2,12.7 38.5,17.3 12.5,4.3 25.4,7.4 38.5,8.7 12.4,1.2 24.9,0.9 37.1,-1.2 4.8,-0.8 9.6,-1.9 14.2,-3.2 4.5,-1.3 9,-2.9 13.4,-4.5 -0.3,-7.6 -0.6,-15.1 -0.9,-22.5 z m -185.1,-53 c 16,3.8 32.4,6.3 48.9,6.8 13.1,0.4 26.3,-0.6 39.2,-3 11.6,-2.2 23,-5.6 33.9,-10.2 11.1,-4.6 21.7,-10.4 31.8,-17 6.3,-4.1 12.3,-8.5 18.1,-13.3 3.2,-2.6 6.3,-5.3 9.5,-8.1 -0.8,-20 -1.6,-40 -2.4,-60 -4.8,4.1 -9.7,8.3 -14.7,12.2 -8.6,6.7 -17.7,12.6 -27.3,17.8 -12.5,6.8 -25.8,12.1 -39.6,15.7 -13.4,3.5 -27.3,5.3 -41.2,5.5 -15.8,0.2 -31.5,-1.5 -46.9,-4.6 -19.4,-3.9 -38.3,-9.9 -56.9,-16.8 -10.6,-3.9 -21.1,-8.2 -31.5,-12.7 -3.6,-1.6 -7.2,-3.2 -10.8,-4.8 -0.1,-22 -0.2,-44.1 -0.3,-66.2 -0.1,-18 -0.1,-35.9 -0.2,-53.9 -9.1,-4 -18.1,-8 -27.1,-12.1 -10.6,-4.8 -21.1,-9.5 -31.7,-14.2 0,8.7 -0.1,17.4 -0.1,26.1 -0.1,19 -0.1,38.1 -0.2,57.1 -0.1,12.2 -0.1,24.4 -0.2,36.6 -9.8,-4.2 -19.6,-8.4 -29.5,-12.4 -16,-6.4 -32.2,-12.2 -48.8,-16.8 -16.4,-4.5 -33.2,-7.8 -50.2,-9.1 -17.9,-1.3 -36.1,-0.3 -53.6,3.7 -15.6,3.5 -30.7,9.4 -44.7,17 -9.6,5.2 -18.7,11.1 -27.3,17.8 -5,3.9 -9.9,8 -14.7,12.2 -0.8,20 -1.6,40 -2.4,60 9,-7.5 18,-14.9 27.7,-21.4 13,-8.8 27.2,-15.8 42.1,-20.9 13.9,-4.7 28.4,-7.7 43,-8.8 15.8,-1.2 31.7,-0.3 47.4,2.2 18.7,2.9 37.1,8 55,14.1 12.6,4.3 25,9.1 37.3,14.3 6.3,2.6 12.5,5.3 18.7,8 -0.1,16.2 -0.1,32.4 -0.2,48.6 0,11.5 -0.1,23.1 -0.1,34.6 -0.1,12.2 -0.1,24.4 -0.2,36.6 15.3,7 30.6,13.8 45.9,20.6 5.1,2.3 10.2,4.5 15.3,6.8 -0.1,-20 -0.2,-40 -0.2,-60.1 -0.1,-20 -0.2,-40.1 -0.2,-60.1 14.2,6 28.3,12.1 42.7,17.5 15,5.8 30.7,10.9 46.7,14.7 z m -34.5,-90.2 c 4.6,1.5 9.2,3 13.9,4.5 4.5,-1 9,-1.9 13.4,-3 7.5,-1.8 14.9,-4 22.3,-6.5 6.4,-2.2 12.8,-4.6 19,-7.2 10.7,-4.5 21.1,-9.8 31.1,-15.7 10,-5.9 19.7,-12.5 28.9,-19.7 6.8,-5.3 13.4,-10.8 19.7,-16.6 8.3,-7.7 16.3,-15.7 23.9,-24.1 7.8,-8.6 15.2,-17.5 22.2,-26.6 4.9,-6.4 9.5,-12.9 14.2,-19.4 -5,4.3 -10,8.6 -15.2,12.6 -9,6.9 -18.6,13 -28.6,18.3 -2.8,2.9 -5.6,5.7 -8.4,8.6 -4.5,4.4 -9.1,8.8 -13.9,12.9 -8.2,7.2 -16.7,13.9 -25.6,20.2 -8.4,5.9 -17.2,11.4 -26.3,16.3 -8.4,4.6 -17,8.7 -25.9,12.3 -10.4,4.3 -21.1,7.8 -32,10.8 -11.2,3.1 -22.5,5.5 -33.9,7.3 -9.8,1.6 -19.6,2.7 -29.4,3.8 4.6,1.8 9.3,3.7 13.9,5.5 5.6,1.8 11.1,3.8 16.7,5.7 z"
               id="path1425"
               style="fill:#ef081f;fill-opacity:1;fill-rule:nonzero"
               inkscape:connector-curvature="0" /></g></g></g></g><path
       style="fill:#ffffff;stroke:#ffffff;strokeWidth:7.91040993;strokeLinecap:butt;strokeLinejoin:miter;strokeMiterlimit:4;stroke-dasharray:none;stroke-opacity:1"
       d="m -2953.5712,38.647428 25.8696,-418.902118 1.5251,-20.90254 v 0"
       id="path1080"
       sodipodi:nodetypes="cccc"
       transform="translate(1.6549735e-5)"
       inkscape:connector-curvature="0" /></g></g><g
   id="g5085"
   transform="translate(3.8714287,15.277802)"
   style="stroke:#e6e6e6;stroke-opacity:1">
	<path
   class="st1"
   d="m 62.9,48.7 -4,-4.8 c -1.3,-1.3 -3.1,-1.2 -4.6,-1.2 -1.5,0 -6.7,0.6 -14.9,3.4 -8.2,2.7 -11.3,4 -11.3,4 0,0 8.2,-1.7 17,-1.7 7.5,0 17.1,1.7 17.2,1.7 0.7,-0.1 1,-0.9 0.6,-1.4 z"
   id="path5079"
   style="fill:#ffffff;fill-opacity:1;stroke:#e6e6e6;strokeWidth:0.25;strokeMiterlimit:4;stroke-dasharray:none;stroke-opacity:1"
   inkscape:connector-curvature="0" />
	<path
   class="st1"
   d="m 39.2,22.7 c 1,-0.2 1.7,0.1 1.9,0 0.2,-0.2 -0.2,-0.6 -0.2,-0.6 l -6.1,-7.4 -1.7,-2 C 32.6,12 31.6,12 31,12.7 l -3,3.6 v 0 l -0.1,0.1 v 0 L 0,49.8 10.1,41.4 c 0,0 8.2,-7.3 16.6,-12.8 5,-3.3 8.3,-5 12.5,-5.9 z"
   id="path5081"
   style="fill:#ffffff;fill-opacity:1;stroke:#e6e6e6;strokeWidth:0.25;strokeMiterlimit:4;stroke-dasharray:none;stroke-opacity:1"
   inkscape:connector-curvature="0" />
	<path
   class="st1"
   d="m 53.1,37.4 c 0.5,0 -0.5,-1.3 -0.6,-1.3 L 45.8,28 v 0 c -0.1,-0.1 -0.5,-0.4 -1.5,-0.4 -1.3,0 -6.3,1.7 -13.6,7.1 -7.2,5.4 -18.1,15 -18.4,15.3 1.9,-1 9.9,-5 15.9,-7.5 6.9,-2.9 13.4,-4.4 17,-5 4.9,-0.9 7.5,-0.1 7.9,-0.1 z"
   id="path5083"
   style="fill:#ffffff;fill-opacity:1;stroke:#e6e6e6;strokeWidth:0.25;strokeMiterlimit:4;stroke-dasharray:none;stroke-opacity:1"
   inkscape:connector-curvature="0" />
</g><g
   id="g4160"
   style="fill:#ffffff"
   transform="translate(-5.8245043,3.0562051)"><g
     id="g5117"
     transform="translate(0.09593342,15.821151)"
     style="fill:#ffffff;stroke:#e6e6e6;stroke-opacity:1">
	<path
   class="st2"
   d="m 107.1,8.9 h 11.6 v 3.5 h -7.3 v 4.3 h 6.8 v 3.5 h -6.8 v 7.6 h -4.3 z"
   id="path5091"
   style="fill:#ffffff;stroke:#e6e6e6;stroke-opacity:1"
   inkscape:connector-curvature="0" /><path
   class="st2"
   d="m 126.2,10.3 c 0,1.2 -0.9,2.1 -2.3,2.1 -1.4,0 -2.2,-0.9 -2.2,-2.1 0,-1.2 0.9,-2.1 2.3,-2.1 1.3,-0.1 2.2,0.8 2.2,2.1 z m -4.4,17.5 V 14.1 h 4.3 v 13.8 h -4.3 z"
   id="path5093"
   style="fill:#ffffff;stroke:#e6e6e6;stroke-opacity:1"
   inkscape:connector-curvature="0" /><path
   class="st2"
   d="m 132.8,22.3 c 0.1,1.8 1.9,2.6 3.9,2.6 1.4,0 2.6,-0.2 3.8,-0.6 l 0.6,2.9 c -1.4,0.6 -3.1,0.9 -5,0.9 -4.7,0 -7.3,-2.7 -7.3,-7 0,-3.5 2.2,-7.4 6.9,-7.4 4.5,0 6.1,3.5 6.1,6.9 0,0.7 -0.1,1.4 -0.2,1.7 z m 5,-2.9 c 0,-1 -0.5,-2.8 -2.4,-2.8 -1.8,0 -2.5,1.7 -2.7,2.8 z"
   id="path5095"
   style="fill:#ffffff;stroke:#e6e6e6;stroke-opacity:1"
   inkscape:connector-curvature="0" /><path
   class="st2"
   d="m 144.3,7.9 h 4.3 v 20 h -4.3 z"
   id="path5097"
   style="fill:#ffffff;stroke:#e6e6e6;stroke-opacity:1"
   inkscape:connector-curvature="0" /><path
   class="st2"
   d="m 165.4,7.9 v 15.9 c 0,1.6 0.1,3.2 0.1,4.1 h -3.8 l -0.2,-2 h -0.1 c -0.9,1.5 -2.5,2.3 -4.3,2.3 -3.2,0 -5.9,-2.8 -5.9,-7.1 0,-4.6 2.9,-7.3 6.2,-7.3 1.7,0 3,0.6 3.6,1.6 h 0.1 V 7.9 Z m -4.3,12 c 0,-0.2 0,-0.5 -0.1,-0.8 -0.2,-1.1 -1.2,-2.1 -2.5,-2.1 -2,0 -3,1.7 -3,3.9 0,2.3 1.1,3.8 2.9,3.8 1.2,0 2.2,-0.8 2.5,-2.1 0.1,-0.3 0.1,-0.6 0.1,-1 v -1.7 z"
   id="path5099"
   style="fill:#ffffff;stroke:#e6e6e6;stroke-opacity:1"
   inkscape:connector-curvature="0" /><path
   class="st2"
   d="m 174.8,23.4 c 1.1,0.6 2.9,1.2 4.8,1.2 2,0 3,-0.8 3,-2.1 0,-1.2 -0.9,-1.9 -3.2,-2.7 -3.2,-1.1 -5.2,-2.8 -5.2,-5.6 0,-3.2 2.7,-5.7 7.2,-5.7 2.2,0 3.7,0.4 4.8,1 l -0.9,3.4 c -0.8,-0.4 -2.1,-0.9 -4,-0.9 -1.9,0 -2.8,0.9 -2.8,1.8 0,1.2 1.1,1.7 3.5,2.7 3.4,1.3 4.9,3 4.9,5.7 0,3.2 -2.4,5.9 -7.6,5.9 -2.1,0 -4.3,-0.6 -5.4,-1.2 z"
   id="path5101"
   style="fill:#ffffff;stroke:#e6e6e6;stroke-opacity:1"
   inkscape:connector-curvature="0" /><path
   class="st2"
   d="m 193,22.3 c 0.1,1.8 1.9,2.6 3.9,2.6 1.4,0 2.6,-0.2 3.8,-0.6 l 0.6,2.9 c -1.4,0.6 -3.1,0.9 -5,0.9 -4.7,0 -7.3,-2.7 -7.3,-7 0,-3.5 2.2,-7.4 6.9,-7.4 4.5,0 6.1,3.5 6.1,6.9 0,0.7 -0.1,1.4 -0.2,1.7 z m 5,-2.9 c 0,-1 -0.5,-2.8 -2.4,-2.8 -1.8,0 -2.5,1.7 -2.7,2.8 z"
   id="path5103"
   style="fill:#ffffff;stroke:#e6e6e6;stroke-opacity:1"
   inkscape:connector-curvature="0" /><path
   class="st2"
   d="m 204.6,18.6 c 0,-2 0,-3.4 -0.1,-4.5 h 3.7 l 0.2,2.5 h 0.1 c 0.7,-2 2.4,-2.9 3.7,-2.9 0.4,0 0.6,0 0.9,0.1 v 4 c -0.3,-0.1 -0.7,-0.1 -1.2,-0.1 -1.6,0 -2.6,0.8 -2.9,2.2 -0.1,0.3 -0.1,0.6 -0.1,1 v 7 h -4.3 z"
   id="path5105"
   style="fill:#ffffff;stroke:#e6e6e6;stroke-opacity:1"
   inkscape:connector-curvature="0" /><path
   class="st2"
   d="m 218.4,14.1 1.9,6.4 c 0.3,1.2 0.6,2.2 0.8,3.3 h 0.1 c 0.2,-1.1 0.4,-2.2 0.8,-3.3 l 1.8,-6.4 h 4.5 l -5.1,13.8 h -4.3 l -5,-13.8 z"
   id="path5107"
   style="fill:#ffffff;stroke:#e6e6e6;stroke-opacity:1"
   inkscape:connector-curvature="0" /><path
   class="st2"
   d="m 234.6,10.3 c 0,1.2 -0.9,2.1 -2.3,2.1 -1.4,0 -2.2,-0.9 -2.2,-2.1 0,-1.2 0.9,-2.1 2.3,-2.1 1.3,-0.1 2.1,0.8 2.2,2.1 z m -4.4,17.5 V 14.1 h 4.3 v 13.8 h -4.3 z"
   id="path5109"
   style="fill:#ffffff;stroke:#e6e6e6;stroke-opacity:1"
   inkscape:connector-curvature="0" /><path
   class="st2"
   d="m 248.2,27.5 c -0.8,0.4 -2.2,0.6 -3.8,0.6 -4.5,0 -7.3,-2.7 -7.3,-7 0,-4 2.8,-7.3 7.9,-7.3 1.1,0 2.4,0.2 3.3,0.5 l -0.7,3.2 c -0.5,-0.2 -1.3,-0.4 -2.4,-0.4 -2.3,0 -3.7,1.6 -3.7,3.9 0,2.5 1.7,3.9 3.8,3.9 1,0 1.8,-0.2 2.5,-0.4 z"
   id="path5111"
   style="fill:#ffffff;stroke:#e6e6e6;stroke-opacity:1"
   inkscape:connector-curvature="0" /><path
   class="st2"
   d="m 253.9,22.3 c 0.1,1.8 1.9,2.6 3.9,2.6 1.4,0 2.6,-0.2 3.8,-0.6 l 0.6,2.9 c -1.4,0.6 -3.1,0.9 -5,0.9 -4.7,0 -7.3,-2.7 -7.3,-7 0,-3.5 2.2,-7.4 6.9,-7.4 4.5,0 6.1,3.5 6.1,6.9 0,0.7 -0.1,1.4 -0.2,1.7 z m 5,-2.9 c 0,-1 -0.5,-2.8 -2.4,-2.8 -1.8,0 -2.5,1.7 -2.7,2.8 z"
   id="path5113"
   style="fill:#ffffff;stroke:#e6e6e6;stroke-opacity:1"
   inkscape:connector-curvature="0" />
</g><g
     id="g5225"
     transform="translate(0.09593342,15.821151)"
     style="fill:#ffffff">
	<g
   id="g5223"
   style="fill:#ffffff">
		<g
   id="g5221"
   transform="matrix(0.78590408,0,0,1.0241425,34.726359,-1.0007067)"
   style="fill:#ffffff">
			<path
   class="st2"
   d="m 81.8,46 c -0.4,0.2 -1.4,0.5 -2.5,0.5 -2.7,0 -4.7,-1.7 -4.7,-4.8 0,-3 2,-5 4.9,-5 1.2,0 1.9,0.2 2.3,0.4 l -0.3,1 c -0.5,-0.2 -1.1,-0.4 -1.9,-0.4 -2.2,0 -3.7,1.4 -3.7,3.9 0,2.3 1.3,3.8 3.6,3.8 0.8,0 1.5,-0.2 2,-0.4 z"
   id="path5165"
   style="fill:#ffffff"
   inkscape:connector-curvature="0" />
			<path
   class="st2"
   d="m 89.5,42.9 c 0,2.5 -1.7,3.6 -3.4,3.6 -1.8,0 -3.3,-1.3 -3.3,-3.5 0,-2.3 1.5,-3.6 3.4,-3.6 1.9,0 3.3,1.4 3.3,3.5 z m -5.4,0 c 0,1.5 0.9,2.6 2.1,2.6 1.2,0 2.1,-1.1 2.1,-2.7 0,-1.2 -0.6,-2.6 -2.1,-2.6 -1.5,0.1 -2.1,1.5 -2.1,2.7 z"
   id="path5167"
   style="fill:#ffffff"
   inkscape:connector-curvature="0" />
			<path
   class="st2"
   d="m 91,41.4 c 0,-0.7 0,-1.3 -0.1,-1.8 H 92 l 0.1,1.1 v 0 c 0.3,-0.6 1.1,-1.3 2.3,-1.3 0.9,0 2.4,0.6 2.4,2.9 v 4.1 h -1.2 v -3.9 c 0,-1.1 -0.4,-2 -1.6,-2 -0.8,0 -1.4,0.6 -1.7,1.3 -0.1,0.2 -0.1,0.4 -0.1,0.6 v 4.1 H 91 Z"
   id="path5169"
   style="fill:#ffffff"
   inkscape:connector-curvature="0" />
			<path
   class="st2"
   d="m 98.8,41.4 c 0,-0.7 0,-1.3 -0.1,-1.8 h 1.1 l 0.1,1.1 v 0 c 0.3,-0.6 1.1,-1.3 2.3,-1.3 0.9,0 2.4,0.6 2.4,2.9 v 4.1 h -1.2 v -3.9 c 0,-1.1 -0.4,-2 -1.6,-2 -0.8,0 -1.4,0.6 -1.7,1.3 -0.1,0.2 -0.1,0.4 -0.1,0.6 v 4.1 h -1.2 z"
   id="path5171"
   style="fill:#ffffff"
   inkscape:connector-curvature="0" />
			<path
   class="st2"
   d="m 107.3,43.2 c 0,1.7 1.1,2.4 2.3,2.4 0.9,0 1.4,-0.2 1.9,-0.3 l 0.2,0.9 c -0.4,0.2 -1.2,0.4 -2.3,0.4 -2.1,0 -3.3,-1.4 -3.3,-3.4 0,-2.1 1.2,-3.7 3.2,-3.7 2.2,0 2.8,1.9 2.8,3.2 0,0.3 0,0.4 0,0.6 h -4.8 z m 3.6,-0.9 c 0,-0.8 -0.3,-2 -1.7,-2 -1.3,0 -1.8,1.1 -1.9,2 z"
   id="path5173"
   style="fill:#ffffff"
   inkscape:connector-curvature="0" />
			<path
   class="st2"
   d="m 118.5,46.1 c -0.3,0.2 -1,0.4 -2,0.4 -2.1,0 -3.4,-1.4 -3.4,-3.5 0,-2.1 1.4,-3.6 3.7,-3.6 0.7,0 1.4,0.2 1.7,0.4 l -0.3,1 c -0.3,-0.2 -0.8,-0.3 -1.4,-0.3 -1.6,0 -2.4,1.2 -2.4,2.6 0,1.6 1,2.5 2.4,2.5 0.7,0 1.2,-0.2 1.5,-0.3 z"
   id="path5175"
   style="fill:#ffffff"
   inkscape:connector-curvature="0" />
			<path
   class="st2"
   d="m 121.5,37.6 v 2 h 1.8 v 0.9 h -1.8 v 3.7 c 0,0.8 0.2,1.3 0.9,1.3 0.3,0 0.6,0 0.7,-0.1 l 0.1,0.9 c -0.2,0.1 -0.6,0.2 -1.1,0.2 -0.6,0 -1,-0.2 -1.3,-0.5 -0.3,-0.4 -0.5,-1 -0.5,-1.8 v -3.7 h -1.1 v -0.9 h 1.1 V 38 Z"
   id="path5177"
   style="fill:#ffffff"
   inkscape:connector-curvature="0" />
			<path
   class="st2"
   d="m 124.3,45.6 c 0,-0.5 0.3,-0.9 0.8,-0.9 0.5,0 0.8,0.4 0.8,0.9 0,0.5 -0.3,0.9 -0.8,0.9 -0.4,0 -0.8,-0.4 -0.8,-0.9 z"
   id="path5179"
   style="fill:#ffffff"
   inkscape:connector-curvature="0" />
			<path
   class="st2"
   d="m 137.2,46 c -0.4,0.2 -1.4,0.5 -2.5,0.5 -2.7,0 -4.7,-1.7 -4.7,-4.8 0,-3 2,-5 4.9,-5 1.2,0 1.9,0.2 2.3,0.4 l -0.3,1 c -0.5,-0.2 -1.1,-0.4 -1.9,-0.4 -2.2,0 -3.7,1.4 -3.7,3.9 0,2.3 1.3,3.8 3.6,3.8 0.8,0 1.5,-0.2 2,-0.4 z"
   id="path5181"
   style="fill:#ffffff"
   inkscape:connector-curvature="0" />
			<path
   class="st2"
   d="m 144.8,42.9 c 0,2.5 -1.7,3.6 -3.4,3.6 -1.8,0 -3.3,-1.3 -3.3,-3.5 0,-2.3 1.5,-3.6 3.4,-3.6 2,0 3.3,1.4 3.3,3.5 z m -5.3,0 c 0,1.5 0.9,2.6 2.1,2.6 1.2,0 2.1,-1.1 2.1,-2.7 0,-1.2 -0.6,-2.6 -2.1,-2.6 -1.5,0.1 -2.1,1.5 -2.1,2.7 z"
   id="path5183"
   style="fill:#ffffff"
   inkscape:connector-curvature="0" />
			<path
   class="st2"
   d="m 146.4,36.3 h 1.2 v 10 h -1.2 z"
   id="path5185"
   style="fill:#ffffff"
   inkscape:connector-curvature="0" />
			<path
   class="st2"
   d="m 149.7,36.3 h 1.2 v 10 h -1.2 z"
   id="path5187"
   style="fill:#ffffff"
   inkscape:connector-curvature="0" />
			<path
   class="st2"
   d="m 156.8,46.3 -0.1,-0.9 v 0 c -0.4,0.5 -1.1,1 -2.1,1 -1.4,0 -2.1,-1 -2.1,-2 0,-1.6 1.5,-2.6 4.1,-2.5 v -0.1 c 0,-0.6 -0.2,-1.6 -1.5,-1.6 -0.6,0 -1.3,0.2 -1.8,0.5 L 153,40 c 0.6,-0.4 1.4,-0.6 2.2,-0.6 2.1,0 2.6,1.4 2.6,2.8 v 2.5 c 0,0.6 0,1.2 0.1,1.6 z m -0.2,-3.4 c -1.3,0 -2.9,0.2 -2.9,1.5 0,0.8 0.5,1.2 1.2,1.2 0.9,0 1.5,-0.6 1.7,-1.1 0,-0.1 0.1,-0.3 0.1,-0.4 v -1.2 z"
   id="path5189"
   style="fill:#ffffff"
   inkscape:connector-curvature="0" />
			<path
   class="st2"
   d="m 159.8,46.3 c 0,-0.5 0.1,-1.1 0.1,-1.8 v -8.2 h 1.2 v 4.3 0 c 0.4,-0.8 1.2,-1.2 2.3,-1.2 1.7,0 2.9,1.4 2.9,3.5 0,2.4 -1.5,3.6 -3.1,3.6 -1,0 -1.8,-0.4 -2.3,-1.3 v 0 l -0.1,1.1 z m 1.3,-2.7 c 0,0.2 0,0.3 0.1,0.4 0.2,0.9 1,1.4 1.9,1.4 1.3,0 2.1,-1.1 2.1,-2.6 0,-1.4 -0.7,-2.5 -2,-2.5 -0.8,0 -1.6,0.6 -1.9,1.5 0,0.2 -0.1,0.3 -0.1,0.5 v 1.3 z"
   id="path5191"
   style="fill:#ffffff"
   inkscape:connector-curvature="0" />
			<path
   class="st2"
   d="m 174,42.9 c 0,2.5 -1.7,3.6 -3.4,3.6 -1.8,0 -3.3,-1.3 -3.3,-3.5 0,-2.3 1.5,-3.6 3.4,-3.6 2,0 3.3,1.4 3.3,3.5 z m -5.4,0 c 0,1.5 0.9,2.6 2.1,2.6 1.2,0 2.1,-1.1 2.1,-2.7 0,-1.2 -0.6,-2.6 -2.1,-2.6 -1.5,0.1 -2.1,1.5 -2.1,2.7 z"
   id="path5193"
   style="fill:#ffffff"
   inkscape:connector-curvature="0" />
			<path
   class="st2"
   d="m 175.6,41.6 c 0,-0.8 0,-1.5 -0.1,-2.1 h 1.1 v 1.3 0 c 0.3,-0.9 1.1,-1.5 1.9,-1.5 0.1,0 0.2,0 0.3,0 v 1.2 c -0.1,0 -0.3,0 -0.4,0 -0.9,0 -1.5,0.7 -1.7,1.6 0,0.2 0,0.4 0,0.6 v 3.6 h -1.2 v -4.7 z"
   id="path5195"
   style="fill:#ffffff"
   inkscape:connector-curvature="0" />
			<path
   class="st2"
   d="m 183.9,46.3 -0.1,-0.9 v 0 c -0.4,0.5 -1.1,1 -2.1,1 -1.4,0 -2.1,-1 -2.1,-2 0,-1.6 1.5,-2.6 4.1,-2.5 v -0.1 c 0,-0.6 -0.2,-1.6 -1.5,-1.6 -0.6,0 -1.3,0.2 -1.8,0.5 l -0.3,-0.8 c 0.6,-0.4 1.4,-0.6 2.2,-0.6 2.1,0 2.6,1.4 2.6,2.8 v 2.5 c 0,0.6 0,1.2 0.1,1.6 h -1.1 z m -0.2,-3.4 c -1.3,0 -2.9,0.2 -2.9,1.5 0,0.8 0.5,1.2 1.2,1.2 0.9,0 1.5,-0.6 1.7,-1.1 0,-0.1 0.1,-0.3 0.1,-0.4 v -1.2 z"
   id="path5197"
   style="fill:#ffffff"
   inkscape:connector-curvature="0" />
			<path
   class="st2"
   d="m 188.4,37.6 v 2 h 1.8 v 0.9 h -1.8 v 3.7 c 0,0.8 0.2,1.3 0.9,1.3 0.3,0 0.6,0 0.7,-0.1 l 0.1,0.9 c -0.2,0.1 -0.6,0.2 -1.1,0.2 -0.6,0 -1,-0.2 -1.3,-0.5 -0.3,-0.4 -0.5,-1 -0.5,-1.8 v -3.7 h -1.1 v -0.9 h 1.1 V 38 Z"
   id="path5199"
   style="fill:#ffffff"
   inkscape:connector-curvature="0" />
			<path
   class="st2"
   d="m 192.3,43.2 c 0,1.7 1.1,2.4 2.3,2.4 0.9,0 1.4,-0.2 1.9,-0.3 l 0.2,0.9 c -0.4,0.2 -1.2,0.4 -2.3,0.4 -2.1,0 -3.3,-1.4 -3.3,-3.4 0,-2.1 1.2,-3.7 3.2,-3.7 2.2,0 2.8,1.9 2.8,3.2 0,0.3 0,0.4 0,0.6 h -4.8 z m 3.6,-0.9 c 0,-0.8 -0.3,-2 -1.7,-2 -1.3,0 -1.8,1.1 -1.9,2 z"
   id="path5201"
   style="fill:#ffffff"
   inkscape:connector-curvature="0" />
			<path
   class="st2"
   d="m 198.3,45.6 c 0,-0.5 0.3,-0.9 0.8,-0.9 0.5,0 0.8,0.4 0.8,0.9 0,0.5 -0.3,0.9 -0.8,0.9 -0.4,0 -0.8,-0.4 -0.8,-0.9 z"
   id="path5203"
   style="fill:#ffffff"
   inkscape:connector-curvature="0" />
			<path
   class="st2"
   d="m 211.2,46 c -0.4,0.2 -1.4,0.5 -2.5,0.5 -2.7,0 -4.7,-1.7 -4.7,-4.8 0,-3 2,-5 4.9,-5 1.2,0 1.9,0.2 2.3,0.4 l -0.3,1 c -0.5,-0.2 -1.1,-0.4 -1.9,-0.4 -2.2,0 -3.7,1.4 -3.7,3.9 0,2.3 1.3,3.8 3.6,3.8 0.8,0 1.5,-0.2 2,-0.4 z"
   id="path5205"
   style="fill:#ffffff"
   inkscape:connector-curvature="0" />
			<path
   class="st2"
   d="m 218.8,42.9 c 0,2.5 -1.7,3.6 -3.4,3.6 -1.8,0 -3.3,-1.3 -3.3,-3.5 0,-2.3 1.5,-3.6 3.4,-3.6 2,0 3.3,1.4 3.3,3.5 z m -5.3,0 c 0,1.5 0.9,2.6 2.1,2.6 1.2,0 2.1,-1.1 2.1,-2.7 0,-1.2 -0.6,-2.6 -2.1,-2.6 -1.5,0.1 -2.1,1.5 -2.1,2.7 z"
   id="path5207"
   style="fill:#ffffff"
   inkscape:connector-curvature="0" />
			<path
   class="st2"
   d="m 220.4,41.4 c 0,-0.7 0,-1.3 -0.1,-1.8 h 1.1 l 0.1,1.1 v 0 c 0.3,-0.6 1.1,-1.3 2.3,-1.3 0.9,0 2.4,0.6 2.4,2.9 v 4.1 H 225 v -3.9 c 0,-1.1 -0.4,-2 -1.6,-2 -0.8,0 -1.4,0.6 -1.7,1.3 -0.1,0.2 -0.1,0.4 -0.1,0.6 v 4.1 h -1.2 z"
   id="path5209"
   style="fill:#ffffff"
   inkscape:connector-curvature="0" />
			<path
   class="st2"
   d="m 229.7,37.6 v 2 h 1.8 v 0.9 h -1.8 v 3.7 c 0,0.8 0.2,1.3 0.9,1.3 0.3,0 0.6,0 0.7,-0.1 l 0.1,0.9 c -0.2,0.1 -0.6,0.2 -1.1,0.2 -0.6,0 -1,-0.2 -1.3,-0.5 -0.3,-0.4 -0.5,-1 -0.5,-1.8 v -3.7 h -1.1 v -0.9 h 1.1 V 38 Z"
   id="path5211"
   style="fill:#ffffff"
   inkscape:connector-curvature="0" />
			<path
   class="st2"
   d="m 232.9,41.6 c 0,-0.8 0,-1.5 -0.1,-2.1 h 1.1 v 1.3 0 c 0.3,-0.9 1.1,-1.5 1.9,-1.5 0.1,0 0.2,0 0.3,0 v 1.2 c -0.1,0 -0.3,0 -0.4,0 -0.9,0 -1.5,0.7 -1.7,1.6 0,0.2 0,0.4 0,0.6 v 3.6 h -1.2 v -4.7 z"
   id="path5213"
   style="fill:#ffffff"
   inkscape:connector-curvature="0" />
			<path
   class="st2"
   d="m 243.6,42.9 c 0,2.5 -1.7,3.6 -3.4,3.6 -1.8,0 -3.3,-1.3 -3.3,-3.5 0,-2.3 1.5,-3.6 3.4,-3.6 2,0 3.3,1.4 3.3,3.5 z m -5.4,0 c 0,1.5 0.9,2.6 2.1,2.6 1.2,0 2.1,-1.1 2.1,-2.7 0,-1.2 -0.6,-2.6 -2.1,-2.6 -1.4,0.1 -2.1,1.5 -2.1,2.7 z"
   id="path5215"
   style="fill:#ffffff"
   inkscape:connector-curvature="0" />
			<path
   class="st2"
   d="m 245.2,36.3 h 1.2 v 10 h -1.2 z"
   id="path5217"
   style="fill:#ffffff"
   inkscape:connector-curvature="0" />
			<path
   class="st2"
   d="m 248.2,45.6 c 0,-0.5 0.3,-0.9 0.8,-0.9 0.5,0 0.8,0.4 0.8,0.9 0,0.5 -0.3,0.9 -0.8,0.9 -0.4,0 -0.8,-0.4 -0.8,-0.9 z"
   id="path5219"
   style="fill:#ffffff"
   inkscape:connector-curvature="0" />
		</g>
	</g>
</g><g
     id="g3786"
     transform="matrix(1.0098212,0,0,1.0211661,-59.183909,-18.341214)"
     style="fill:#ffffff"><path
       d="m 128.2,41.9 v 10.9 c 0,3.3 1.3,4.9 3.4,4.9 2.3,0 3.5,-1.6 3.5,-4.9 V 41.9 h 4.3 v 10.6 c 0,5.9 -3,8.6 -7.9,8.6 -4.8,0 -7.6,-2.7 -7.6,-8.7 V 41.9 Z"
       strokeMiterlimit="10"
       id="path3371"
       style="fill:#ffffff;stroke:#e6e6e6;strokeWidth:0.25;strokeMiterlimit:10"
       inkscape:connector-curvature="0" /><path
       d="m 143.1,41.9 h 4.2 v 8.4 h 0.1 c 0.4,-0.7 0.9,-1.4 1.3,-2.1 l 4.3,-6.3 h 5.3 l -6.3,8.1 6.6,10.9 h -5 l -4.6,-8.2 -1.6,2 v 6.2 h -4.2 v -19 z"
       strokeMiterlimit="10"
       id="path3373"
       style="fill:#ffffff;stroke:#e6e6e6;strokeWidth:0.25;strokeMiterlimit:10"
       inkscape:connector-curvature="0" /></g></g></svg>