<svg width="17" height="17" viewBox="0 0 17 17" fill="none" xmlns="http://www.w3.org/2000/svg">
<g id="vuesax/outline/location">
<g id="location">
<path id="Vector" d="M8.61735 9.98951C7.19735 9.98951 6.03735 8.83618 6.03735 7.40951C6.03735 5.98285 7.19735 4.83618 8.61735 4.83618C10.0374 4.83618 11.1974 5.98952 11.1974 7.41618C11.1974 8.84285 10.0374 9.98951 8.61735 9.98951ZM8.61735 5.83618C7.75069 5.83618 7.03735 6.54285 7.03735 7.41618C7.03735 8.28952 7.74402 8.99618 8.61735 8.99618C9.49069 8.99618 10.1974 8.28952 10.1974 7.41618C10.1974 6.54285 9.48402 5.83618 8.61735 5.83618Z" fill="#878787"/>
<path id="Vector_2" d="M8.61755 15.7162C7.63088 15.7162 6.63755 15.3429 5.86422 14.6029C3.89755 12.7096 1.72422 9.68955 2.54422 6.09622C3.28422 2.83622 6.13088 1.37622 8.61755 1.37622C8.61755 1.37622 8.61755 1.37622 8.62422 1.37622C11.1109 1.37622 13.9575 2.83622 14.6975 6.10289C15.5109 9.69622 13.3375 12.7096 11.3709 14.6029C10.5975 15.3429 9.60422 15.7162 8.61755 15.7162ZM8.61755 2.37622C6.67755 2.37622 4.18422 3.40955 3.52422 6.31622C2.80422 9.45622 4.77755 12.1629 6.56422 13.8762C7.71755 14.9896 9.52422 14.9896 10.6775 13.8762C12.4575 12.1629 14.4309 9.45622 13.7242 6.31622C13.0575 3.40955 10.5575 2.37622 8.61755 2.37622Z" fill="#878787"/>
</g>
</g>
</svg>
