<svg width="23" height="23" viewBox="0 0 23 23" fill="none" xmlns="http://www.w3.org/2000/svg">
<g id="vuesax/broken/volume-slash">
<g id="volume-slash">
<path id="Vector" d="M1.8457 12.9209C1.8457 14.7667 2.76862 15.6896 4.61445 15.6896H6.46029" stroke="#DADADA" strokeWidth="1.5" strokeLinecap="round" strokeLinejoin="round"/>
<path id="Vector_2" d="M13.8436 7.72483V6.83883C13.8436 4.08854 11.9332 3.03642 9.60743 4.49463L6.91252 6.18356C6.61718 6.35892 6.2757 6.46044 5.93422 6.46044H4.61445C2.76862 6.46044 1.8457 7.38335 1.8457 9.22919" stroke="#DADADA" strokeWidth="1.5" strokeLinecap="round" strokeLinejoin="round"/>
<path id="Vector_3" d="M9.60742 17.6553C11.9332 19.1135 13.8436 18.0521 13.8436 15.3111V11.9517" stroke="#DADADA" strokeWidth="1.5" strokeLinecap="round" strokeLinejoin="round"/>
<path id="Vector_4" d="M17.3599 8.69385C18.1905 10.6781 17.9413 12.9946 16.6123 14.7666" stroke="#DADADA" strokeWidth="1.5" strokeLinecap="round" strokeLinejoin="round"/>
<path id="Vector_5" d="M19.1781 15.6897C18.9289 16.1696 18.6428 16.6311 18.3105 17.0741" stroke="#DADADA" strokeWidth="1.5" strokeLinecap="round" strokeLinejoin="round"/>
<path id="Vector_6" d="M19.5195 7.19873C20.2856 9.01688 20.4886 11.0104 20.1287 12.9208" stroke="#DADADA" strokeWidth="1.5" strokeLinecap="round" strokeLinejoin="round"/>
<path id="Vector_7" d="M20.304 1.84595L1.8457 20.3043" stroke="#DADADA" strokeWidth="1.5" strokeLinecap="round" strokeLinejoin="round"/>
</g>
</g>
</svg>
