<svg width="23" height="23" viewBox="0 0 23 23" fill="none" xmlns="http://www.w3.org/2000/svg">
<g id="vuesax/outline/volume-high">
<g id="volume-high">
<path id="Vector" d="M11.9693 19.4676C11.2401 19.4676 10.437 19.2092 9.63396 18.7015L6.93857 17.0122C6.75396 16.9015 6.54165 16.8369 6.32934 16.8369H5.00011C2.76627 16.8369 1.53857 15.6092 1.53857 13.3753V9.683C1.53857 7.44916 2.76627 6.22147 5.00011 6.22147H6.32011C6.53242 6.22147 6.74473 6.15685 6.92934 6.04608L9.62473 4.35685C10.9724 3.51685 12.2832 3.35993 13.317 3.93224C14.3509 4.50454 14.914 5.69531 14.914 7.29224V15.7569C14.914 17.3445 14.3417 18.5445 13.317 19.1169C12.9109 19.3569 12.4493 19.4676 11.9693 19.4676ZM5.00011 7.61531C3.54165 7.61531 2.92319 8.23377 2.92319 9.69224V13.3845C2.92319 14.843 3.54165 15.4615 5.00011 15.4615H6.32011C6.80011 15.4615 7.26165 15.5907 7.66781 15.8492L10.3632 17.5384C11.2493 18.0922 12.0893 18.2399 12.6524 17.9261C13.2155 17.6122 13.5386 16.8276 13.5386 15.7845V7.30147C13.5386 6.24916 13.2155 5.46454 12.6524 5.15993C12.0893 4.84608 11.2493 4.98454 10.3632 5.54762L7.65857 7.22762C7.26165 7.48608 6.79088 7.61531 6.32011 7.61531H5.00011Z" fill="#DADADA"/>
<path id="Vector_2" d="M17.0002 15.923C16.8525 15.923 16.714 15.8769 16.5848 15.7846C16.2802 15.5538 16.2156 15.12 16.4463 14.8154C17.8956 12.8861 17.8956 10.1907 16.4463 8.26151C16.2156 7.95689 16.2802 7.52305 16.5848 7.29228C16.8894 7.06151 17.3233 7.12612 17.554 7.43074C19.3633 9.8492 19.3633 13.2277 17.554 15.6461C17.4156 15.8307 17.2125 15.923 17.0002 15.923Z" fill="#DADADA"/>
<path id="Vector_3" d="M18.6891 18.2306C18.5414 18.2306 18.403 18.1844 18.2738 18.0921C17.9691 17.8613 17.9045 17.4275 18.1353 17.1229C20.5999 13.8367 20.5999 9.2398 18.1353 5.95365C17.9045 5.64903 17.9691 5.21519 18.2738 4.98442C18.5784 4.75365 19.0122 4.81826 19.243 5.12288C22.0768 8.89826 22.0768 14.1783 19.243 17.9536C19.1138 18.1383 18.9014 18.2306 18.6891 18.2306Z" fill="#DADADA"/>
</g>
</g>
</svg>
