<svg width="24" height="24" viewBox="0 0 24 24" fill="none" xmlns="http://www.w3.org/2000/svg">
<path d="M12.8485 2.75147C12.3799 2.28284 11.6201 2.28284 11.1515 2.75147L2.75147 11.1515C2.28284 11.6201 2.28284 12.3799 2.75147 12.8485C3.22009 13.3172 3.97989 13.3172 4.44852 12.8485L4.79999 12.4971V20.4C4.79999 21.0627 5.33725 21.6 5.99999 21.6H8.39999C9.06274 21.6 9.59999 21.0627 9.59999 20.4V18C9.59999 17.3373 10.1373 16.8 10.8 16.8H13.2C13.8627 16.8 14.4 17.3373 14.4 18V20.4C14.4 21.0627 14.9373 21.6 15.6 21.6H18C18.6627 21.6 19.2 21.0627 19.2 20.4V12.4971L19.5515 12.8485C20.0201 13.3172 20.7799 13.3172 21.2485 12.8485C21.7172 12.3799 21.7172 11.6201 21.2485 11.1515L12.8485 2.75147Z" fill="#0E7490"/>
</svg>
