<svg width="41" height="41" viewBox="0 0 41 41" fill="none" xmlns="http://www.w3.org/2000/svg">
<g id="call-calling 3">
<path id="Vector" opacity="0.4" d="M20.1502 24.2754L14.7002 29.8617C14.1002 29.315 13.5168 28.7512 12.9502 28.1704C11.2335 26.3937 9.6835 24.5317 8.30016 22.5842C6.9335 20.6367 5.8335 18.6892 5.0335 16.7587C4.2335 14.8112 3.8335 12.9492 3.8335 11.1725C3.8335 10.0108 4.0335 8.90041 4.4335 7.87541C4.8335 6.83332 5.46683 5.87666 6.35016 5.02249C7.41683 3.94624 8.5835 3.41666 9.81683 3.41666C10.2835 3.41666 10.7502 3.51916 11.1668 3.72416C11.6002 3.92916 11.9835 4.23666 12.2835 4.68082L16.1502 10.2671C16.4502 10.6942 16.6668 11.0871 16.8168 11.4629C16.9668 11.8217 17.0502 12.1804 17.0502 12.505C17.0502 12.915 16.9335 13.325 16.7002 13.7179C16.4835 14.1108 16.1668 14.5208 15.7668 14.9308L14.5002 16.2804C14.3168 16.4683 14.2335 16.6904 14.2335 16.9637C14.2335 17.1004 14.2502 17.22 14.2835 17.3567C14.3335 17.4933 14.3835 17.5958 14.4168 17.6983C14.7168 18.2621 15.2335 18.9967 15.9668 19.885C16.7168 20.7733 17.5168 21.6787 18.3835 22.5842C18.9835 23.1821 19.5668 23.7629 20.1502 24.2754Z" fill="white"/>
<path id="Vector_2" d="M37.1162 31.3137C37.1162 31.7921 37.0328 32.2875 36.8662 32.7658C36.8162 32.9025 36.7662 33.0392 36.6995 33.1758C36.4162 33.7908 36.0495 34.3717 35.5662 34.9183C34.7495 35.8408 33.8495 36.5071 32.8328 36.9342C32.8162 36.9342 32.7995 36.9512 32.7828 36.9512C31.7995 37.3612 30.7328 37.5833 29.5828 37.5833C27.8828 37.5833 26.0662 37.1733 24.1495 36.3362C22.2328 35.4992 20.3162 34.3717 18.4162 32.9537C17.7662 32.4583 17.1162 31.9629 16.4995 31.4333L21.9495 25.8471C22.4162 26.2058 22.8328 26.4792 23.1828 26.6671C23.2662 26.7012 23.3662 26.7525 23.4828 26.8037C23.6162 26.855 23.7495 26.8721 23.8995 26.8721C24.1828 26.8721 24.3995 26.7696 24.5828 26.5817L25.8495 25.3004C26.2662 24.8733 26.6662 24.5487 27.0495 24.3437C27.4328 24.1046 27.8162 23.985 28.2328 23.985C28.5495 23.985 28.8828 24.0533 29.2495 24.2071C29.6162 24.3608 29.9995 24.5829 30.4162 24.8733L35.9328 28.8879C36.3662 29.1954 36.6662 29.5542 36.8495 29.9812C37.0162 30.4083 37.1162 30.8354 37.1162 31.3137Z" fill="white"/>
</g>
</svg>
