<svg width="24" height="25" viewBox="0 0 24 25" fill="none" xmlns="http://www.w3.org/2000/svg">
<g id="email 2">
<path id="Vector" opacity="0.4" d="M17 20.5466H7C4 20.5466 2 19.0466 2 15.5466V8.54663C2 5.04663 4 3.54663 7 3.54663H17C20 3.54663 22 5.04663 22 8.54663V15.5466C22 19.0466 20 20.5466 17 20.5466Z" fill="#6C757D"/>
<path id="Vector_2" d="M12.0008 12.9166C11.1608 12.9166 10.3108 12.6566 9.66076 12.1266L6.53075 9.6266C6.21075 9.3666 6.15076 8.8966 6.41076 8.5766C6.67076 8.2566 7.14076 8.1966 7.46076 8.4566L10.5908 10.9566C11.3508 11.5666 12.6407 11.5666 13.4007 10.9566L16.5308 8.4566C16.8508 8.1966 17.3308 8.2466 17.5808 8.5766C17.8408 8.8966 17.7908 9.3766 17.4608 9.6266L14.3308 12.1266C13.6908 12.6566 12.8408 12.9166 12.0008 12.9166Z" fill="#6C757D"/>
</g>
</svg>
