<?xml version="1.0" encoding="UTF-8"?>
<!DOCTYPE svg PUBLIC "-//W3C//DTD SVG 1.1//EN" "http://www.w3.org/Graphics/SVG/1.1/DTD/svg11.dtd">
<svg xmlns="http://www.w3.org/2000/svg" version="1.1" width="241px" height="79px" style="shape-rendering:geometricPrecision; text-rendering:geometricPrecision; image-rendering:optimizeQuality; fill-rule:evenodd; clip-rule:evenodd" xmlns:xlink="http://www.w3.org/1999/xlink">
<g><path style="opacity:1" fill="#fdfcfc" d="M -0.5,-0.5 C 79.8333,-0.5 160.167,-0.5 240.5,-0.5C 240.5,25.8333 240.5,52.1667 240.5,78.5C 160.167,78.5 79.8333,78.5 -0.5,78.5C -0.5,52.1667 -0.5,25.8333 -0.5,-0.5 Z"/></g>
<g><path style="opacity:1" fill="#5b5b5d" d="M 74.5,17.5 C 76.4726,16.8373 78.6392,16.5039 81,16.5C 90.988,16.2077 93.1546,20.2077 87.5,28.5C 89.6028,32.106 92.2694,35.2727 95.5,38C 93.765,38.6514 92.0983,38.4847 90.5,37.5C 88.31,35.1443 86.31,32.6443 84.5,30C 83.552,29.5172 82.552,29.3505 81.5,29.5C 81.5,32.5 81.5,35.5 81.5,38.5C 79.8008,38.6602 78.1341,38.4935 76.5,38C 77.4788,31.2555 77.8122,24.4222 77.5,17.5C 76.5,17.5 75.5,17.5 74.5,17.5 Z"/></g>
<g><path style="opacity:1" fill="#525254" d="M 170.5,17.5 C 174.919,16.0824 176.919,16.0824 176.5,17.5C 176.188,24.4222 176.521,31.2555 177.5,38C 175.833,38.6667 174.167,38.6667 172.5,38C 173.479,31.2555 173.812,24.4222 173.5,17.5C 172.5,17.5 171.5,17.5 170.5,17.5 Z"/></g>
<g><path style="opacity:1" fill="#5e5e60" d="M 97.5,17.5 C 101.634,16.5151 105.968,16.1818 110.5,16.5C 110.649,17.552 110.483,18.552 110,19.5C 107.959,18.5769 105.792,18.2436 103.5,18.5C 103.5,20.8333 103.5,23.1667 103.5,25.5C 105.833,25.5 108.167,25.5 110.5,25.5C 110.657,26.8734 110.49,28.2068 110,29.5C 108.211,27.771 106.044,27.1043 103.5,27.5C 103.335,30.5184 103.502,33.5184 104,36.5C 106.592,37.9817 108.925,37.6483 111,35.5C 111.483,36.448 111.649,37.448 111.5,38.5C 107.5,38.5 103.5,38.5 99.5,38.5C 100.128,31.0869 99.4612,24.0869 97.5,17.5 Z"/></g>
<g><path style="opacity:1" fill="#535355" d="M 183.5,17.5 C 187.646,16.353 191.98,16.1864 196.5,17C 200.339,20.7168 200.339,24.5501 196.5,28.5C 198.603,32.106 201.269,35.2727 204.5,38C 202.833,38.6667 201.167,38.6667 199.5,38C 197.5,35.3333 195.5,32.6667 193.5,30C 192.207,29.51 190.873,29.3433 189.5,29.5C 189.274,32.2492 189.607,34.9159 190.5,37.5C 188.926,38.6309 187.259,38.7975 185.5,38C 186.479,31.2555 186.812,24.4222 186.5,17.5C 185.5,17.5 184.5,17.5 183.5,17.5 Z"/></g>
<g><path style="opacity:1" fill="#f3f3f3" d="M 81.5,17.5 C 87.6866,19.0768 89.02,22.5768 85.5,28C 84.2068,28.49 82.8734,28.6567 81.5,28.5C 81.5,24.8333 81.5,21.1667 81.5,17.5 Z"/></g>
<g><path style="opacity:1" fill="#5d5d5f" d="M 151.5,17.5 C 156.305,16.5128 161.305,16.1795 166.5,16.5C 166.657,17.8734 166.49,19.2068 166,20.5C 163.894,18.709 161.394,18.0423 158.5,18.5C 158.5,21.1667 158.5,23.8333 158.5,26.5C 160.792,26.7564 162.959,26.4231 165,25.5C 165.667,26.8333 165.667,28.1667 165,29.5C 163.211,27.771 161.044,27.1043 158.5,27.5C 158.211,31.1064 158.544,34.6064 159.5,38C 157.866,38.4935 156.199,38.6602 154.5,38.5C 154.5,31.5 154.5,24.5 154.5,17.5C 153.5,17.5 152.5,17.5 151.5,17.5 Z"/></g>
<g><path style="opacity:1" fill="#ebebec" d="M 189.5,17.5 C 196.575,18.3269 198.242,21.8269 194.5,28C 192.888,28.7203 191.388,28.5536 190,27.5C 189.502,24.1832 189.335,20.8499 189.5,17.5 Z"/></g>
<g><path style="opacity:1" fill="#5b5b5c" d="M 205.5,17.5 C 209.97,16.5139 214.637,16.1805 219.5,16.5C 219.657,17.8734 219.49,19.2068 219,20.5C 217.246,18.75 215.079,18.0833 212.5,18.5C 212.5,20.8333 212.5,23.1667 212.5,25.5C 214.833,25.5 217.167,25.5 219.5,25.5C 219.66,27.1992 219.494,28.8659 219,30.5C 217.713,27.8554 215.547,26.8554 212.5,27.5C 212.335,30.5184 212.502,33.5184 213,36.5C 216.086,38.22 218.419,37.5534 220,34.5C 220.49,35.7932 220.657,37.1266 220.5,38.5C 216.154,38.6657 211.821,38.499 207.5,38C 208.479,31.2555 208.812,24.4222 208.5,17.5C 207.5,17.5 206.5,17.5 205.5,17.5 Z"/></g>
<g><path style="opacity:1" fill="#59595b" d="M 115.5,17.5 C 121.737,16.114 128.071,16.2807 134.5,18C 139.63,22.2177 140.796,27.3843 138,33.5C 134.747,37.8606 130.414,39.5272 125,38.5C 122.5,38.3333 120,38.1667 117.5,38C 118.479,31.2555 118.812,24.4222 118.5,17.5C 117.5,17.5 116.5,17.5 115.5,17.5 Z"/></g>
<g><path style="opacity:1" fill="#fbfbfb" d="M 122.5,17.5 C 132.656,17.4901 136.822,22.4901 135,32.5C 132.192,37.2872 128.192,38.6205 123,36.5C 122.5,30.1754 122.334,23.8421 122.5,17.5 Z"/></g>
<g><path style="opacity:1" fill="#df9e29" d="M 52.5,33.5 C 51.5084,33.3284 50.8417,33.6618 50.5,34.5C 44.6639,29.7789 42.9972,23.7789 45.5,16.5C 46.2192,14.6827 47.2192,14.0161 48.5,14.5C 46.5643,17.208 46.0643,20.208 47,23.5C 48.2265,27.2115 50.0599,30.5448 52.5,33.5 Z"/></g>
<g><path style="opacity:1" fill="#e3a728" d="M 31.5,16.5 C 34.3033,19.2036 35.1366,22.5369 34,26.5C 33.4391,29.29 32.1058,31.6234 30,33.5C 29.51,32.2068 29.3433,30.8734 29.5,29.5C 30.6334,26.7291 31.6334,23.8958 32.5,21C 32.2272,19.4672 31.8938,17.9672 31.5,16.5 Z"/></g>
<g><path style="opacity:1" fill="#eccb2d" d="M 25.5,20.5 C 26.7251,21.1522 27.3917,22.3189 27.5,24C 25.6515,29.8752 22.1515,34.7086 17,38.5C 15.908,41.0444 15.2414,43.7111 15,46.5C 12.0302,37.7502 14.6968,31.0835 23,26.5C 24.5588,24.7834 25.3921,22.7834 25.5,20.5 Z"/></g>
<g><path style="opacity:1" fill="#e8be26" d="M 51.5,20.5 C 56.1361,25.9795 60.6361,31.6461 65,37.5C 65.7901,40.634 65.4568,43.634 64,46.5C 63.6667,44.5 63.3333,42.5 63,40.5C 58.6201,35.7886 54.6201,30.7886 51,25.5C 50.6155,23.8034 50.7822,22.1368 51.5,20.5 Z"/></g>
<g><path style="opacity:1" fill="#eaca27" d="M 29.5,29.5 C 29.3433,30.8734 29.51,32.2068 30,33.5C 32.1058,31.6234 33.4391,29.29 34,26.5C 35.1366,22.5369 34.3033,19.2036 31.5,16.5C 30.2003,15.399 29.7003,14.0657 30,12.5C 39.1437,19.757 39.8104,27.757 32,36.5C 25.2391,41.0214 21.9058,47.3548 22,55.5C 15.6457,50.4388 14.9791,44.7721 20,38.5C 23.0359,35.2956 26.2026,32.2956 29.5,29.5 Z"/></g>
<g><path style="opacity:1" fill="#e7ce21" d="M 45.5,16.5 C 42.9972,23.7789 44.6639,29.7789 50.5,34.5C 51.7927,36.2959 53.2927,37.9625 55,39.5C 55.7891,41.7116 55.6225,43.7116 54.5,45.5C 52.2524,41.7457 49.419,38.4124 46,35.5C 42.6304,31.3938 41.2971,26.7271 42,21.5C 42.6972,19.4156 43.8639,17.7489 45.5,16.5 Z"/></g>
<g><path style="opacity:1" fill="#d42929" d="M 36.5,33.5 C 37.6225,35.2884 37.7891,37.2884 37,39.5C 33.8388,43.6579 31.3388,48.1579 29.5,53C 30.3046,61.7359 34.9712,65.0692 43.5,63C 47.9272,60.3154 49.7605,56.4821 49,51.5C 46.5841,46.9994 43.9175,42.6661 41,38.5C 40.2263,36.597 40.5596,34.9304 42,33.5C 45.4115,38.643 49.0782,43.643 53,48.5C 55.3946,57.6276 52.2279,64.1276 43.5,68C 30.5208,69.3539 24.3541,63.5206 25,50.5C 28.6889,44.661 32.5223,38.9943 36.5,33.5 Z"/></g>
<g><path style="opacity:1" fill="#ebbd1e" d="M 52.5,33.5 C 55.8325,36 58.6658,39 61,42.5C 62.2654,47.6351 60.9321,51.9685 57,55.5C 56.6967,51.9957 55.8634,48.6624 54.5,45.5C 55.6225,43.7116 55.7891,41.7116 55,39.5C 53.2927,37.9625 51.7927,36.2959 50.5,34.5C 50.8417,33.6618 51.5084,33.3284 52.5,33.5 Z"/></g>
<g><path style="opacity:1" fill="#58585a" d="M 75.5,44.5 C 77.6282,43.3709 79.9615,43.2042 82.5,44C 85.3824,47.3554 84.7158,49.3554 80.5,50C 83.1332,47.0874 82.4665,45.2541 78.5,44.5C 78.8242,48.5546 78.4909,52.5546 77.5,56.5C 76.833,52.3525 76.1663,48.3525 75.5,44.5 Z"/></g>
<g><path style="opacity:1" fill="#545456" d="M 88.5,44.5 C 90.6282,43.3709 92.9615,43.2042 95.5,44C 97.901,46.1726 97.901,48.5059 95.5,51C 96.8333,52.6667 98.1667,54.3333 99.5,56C 96.7501,54.7734 94.0834,53.2734 91.5,51.5C 91.7852,53.288 91.4519,54.9547 90.5,56.5C 89.833,52.3525 89.1663,48.3525 88.5,44.5 Z"/></g>
<g><path style="opacity:1" fill="#7b7b7c" d="M 152.5,44.5 C 155.015,41.9689 157.681,41.9689 160.5,44.5C 158.114,44.6759 155.448,44.6759 152.5,44.5 Z"/></g>
<g><path style="opacity:1" fill="#f5f5f5" d="M 91.5,44.5 C 95.35,44.7007 96.35,46.5341 94.5,50C 93.552,50.4828 92.552,50.6495 91.5,50.5C 91.5,48.5 91.5,46.5 91.5,44.5 Z"/></g>
<g><path style="opacity:1" fill="#4c4c4f" d="M 120.5,44.5 C 128.845,43.6413 131.178,43.6413 127.5,44.5C 126.833,60.5 126.167,60.5 125.5,44.5C 123.833,44.5 122.167,44.5 120.5,44.5 Z"/></g>
<g><path style="opacity:1" fill="#4f4f52" d="M 163.5,43.5 C 167.514,43.3345 171.514,43.5012 175.5,44C 173.866,44.4935 172.199,44.6602 170.5,44.5C 169.833,60.5 169.167,60.5 168.5,44.5C 166.856,44.2865 165.356,44.6198 164,45.5C 163.536,44.9056 163.369,44.2389 163.5,43.5 Z"/></g>
<g><path style="opacity:1" fill="#565658" d="M 183.5,44.5 C 183.131,48.7675 182.131,52.7675 180.5,56.5C 180.5,52.1667 180.5,47.8333 180.5,43.5C 181.791,43.2627 182.791,43.596 183.5,44.5 Z"/></g>
<g><path style="opacity:1" fill="#b5b5b6" d="M 183.5,44.5 C 183.203,48.7675 183.536,52.9341 184.5,57C 182.257,57.7966 180.923,57.6299 180.5,56.5C 182.131,52.7675 183.131,48.7675 183.5,44.5 Z"/></g>
<g><path style="opacity:1" fill="#cf242d" d="M 38.5,43.5 C 45.6634,46.8231 47.8301,52.1564 45,59.5C 38.1461,63.3209 33.6461,61.4875 31.5,54C 32.8637,49.8121 35.1971,46.3121 38.5,43.5 Z"/></g>
<g><path style="opacity:1" fill="#5f5f61" d="M 106.5,43.5 C 112.471,42.141 116.137,44.3076 117.5,50C 115.127,57.8747 110.627,59.3747 104,54.5C 101.827,50.1793 102.66,46.5126 106.5,43.5 Z"/></g>
<g><path style="opacity:1" fill="#fcfcfc" d="M 107.5,44.5 C 110.044,44.1043 112.211,44.771 114,46.5C 114.667,49.1667 114.667,51.8333 114,54.5C 111.085,57.07 108.419,56.7366 106,53.5C 105.068,50.1769 105.568,47.1769 107.5,44.5 Z"/></g>
<g><path style="opacity:1" fill="#525253" d="M 208.5,43.5 C 211.797,46.2956 214.964,49.2956 218,52.5C 218.777,49.5706 218.61,46.7372 217.5,44C 218.5,43.3333 219.5,43.3333 220.5,44C 219.7,48.08 219.2,52.2467 219,56.5C 216,53.5 213,50.5 210,47.5C 209.667,50.5 209.333,53.5 209,56.5C 208.501,52.1794 208.334,47.8461 208.5,43.5 Z"/></g>
<g><path style="opacity:1" fill="#626264" d="M 152.5,44.5 C 149.032,52.3722 151.699,56.2055 160.5,56C 151.894,58.7322 148.061,55.5655 149,46.5C 149.816,45.1772 150.983,44.5106 152.5,44.5 Z"/></g>
<g><path style="opacity:1" fill="#5d5d5f" d="M 192.5,44.5 C 198.243,41.9623 201.577,43.7957 202.5,50C 202.024,56.2476 198.69,58.581 192.5,57C 188.874,54.7487 187.707,51.5821 189,47.5C 189.422,45.5743 190.589,44.5743 192.5,44.5 Z"/></g>
<g><path style="opacity:1" fill="#f7f7f7" d="M 192.5,44.5 C 199.182,43.8251 201.682,46.8251 200,53.5C 196.155,57.675 193.155,57.0083 191,51.5C 190.391,48.9348 190.891,46.6015 192.5,44.5 Z"/></g>
<g><path style="opacity:1" fill="#4d4d50" d="M 136.5,44.5 C 142.31,43.4618 143.31,43.4618 139.5,44.5C 139.5,46.1667 139.5,47.8333 139.5,49.5C 144.833,49.8333 144.833,50.1667 139.5,50.5C 139.799,52.604 139.466,54.604 138.5,56.5C 137.833,52.3525 137.166,48.3525 136.5,44.5 Z"/></g>
<g><path style="opacity:1" fill="#ed747c" d="M 160.5,61.5 C 166.324,61.3466 166.657,62.0133 161.5,63.5C 162.376,64.2508 163.376,64.7508 164.5,65C 162.939,65.3176 161.772,66.1509 161,67.5C 160.505,65.5273 160.338,63.5273 160.5,61.5 Z"/></g>
<g><path style="opacity:1" fill="#ec5e67" d="M 179.5,62.5 C 180.946,61.3871 182.613,61.2204 184.5,62C 182.954,63.4396 182.121,65.2729 182,67.5C 181.95,65.256 181.117,63.5893 179.5,62.5 Z"/></g>
<g><path style="opacity:1" fill="#ef7d81" d="M 192.5,64.5 C 192.461,63.2438 192.961,62.2438 194,61.5C 194.585,62.9976 194.085,63.9976 192.5,64.5 Z"/></g>
<g><path style="opacity:1" fill="#ec727a" d="M 115.5,61.5 C 120.041,61.3309 120.374,61.9975 116.5,63.5C 117.025,64.1924 117.692,64.6924 118.5,65C 117.333,65.5 116.5,66.3333 116,67.5C 115.505,65.5273 115.338,63.5273 115.5,61.5 Z"/></g>
<g><path style="opacity:1" fill="#f18b90" d="M 152.5,61.5 C 154.175,63.1788 155.008,65.1788 155,67.5C 153.667,66.1667 152.333,66.1667 151,67.5C 150.591,65.3049 151.091,63.3049 152.5,61.5 Z"/></g>
<g><path style="opacity:1" fill="#f18087" d="M 170.5,61.5 C 175.041,61.3309 175.374,61.9975 171.5,63.5C 172.025,64.1924 172.692,64.6924 173.5,65C 170.999,66.4177 171.332,67.4177 174.5,68C 173.207,68.49 171.873,68.6567 170.5,68.5C 170.5,66.1667 170.5,63.8333 170.5,61.5 Z"/></g>
<g><path style="opacity:1" fill="#c8c9cb" d="M 74.5,64.5 C 80.2055,64.1712 85.8722,64.5046 91.5,65.5C 88.6667,65.8333 85.8333,66.1667 83,66.5C 79.7485,66.4809 76.9151,65.8142 74.5,64.5 Z"/></g>
<g><path style="opacity:1" fill="#eb6d70" d="M 192.5,64.5 C 192.388,68.3393 191.721,68.3393 190.5,64.5C 190.97,63.537 191.637,63.537 192.5,64.5 Z"/></g>
<g><path style="opacity:1" fill="#cacacd" d="M 200.5,64.5 C 206.868,64.1703 213.202,64.5037 219.5,65.5C 216.333,65.8333 213.167,66.1667 210,66.5C 206.424,66.4848 203.258,65.8182 200.5,64.5 Z"/></g>
<g><path style="opacity:1" fill="#f18d93" d="M 99.5,61.5 C 100.461,63.2646 100.795,65.2646 100.5,67.5C 104.172,68.0447 103.838,68.3781 99.5,68.5C 99.5,66.1667 99.5,63.8333 99.5,61.5 Z"/></g>
<g><path style="opacity:1" fill="#f3979b" d="M 124.5,61.5 C 129.041,61.3309 129.374,61.9975 125.5,63.5C 129.361,64.5976 129.361,65.4309 125.5,66C 130.594,67.4578 130.261,68.2912 124.5,68.5C 124.5,66.1667 124.5,63.8333 124.5,61.5 Z"/></g>
<g><path style="opacity:1" fill="#f29499" d="M 144.5,65.5 C 145.774,66.1894 145.774,67.0228 144.5,68C 142.926,68.6987 141.593,68.3654 140.5,67C 142.366,68.0084 143.699,67.5084 144.5,65.5 Z"/></g>
</svg>
