<svg width="49" height="48" viewBox="0 0 49 48" fill="none" xmlns="http://www.w3.org/2000/svg">
<g id="shield-tick 2">
<path id="Vector" opacity="0.4" d="M22.7312 4.11882L11.7311 8.23882C9.63113 9.03882 7.91113 11.5188 7.91113 13.7788V29.9789C7.91113 31.5989 8.97113 33.7389 10.2711 34.6989L21.2712 42.9189C23.2112 44.3789 26.3912 44.3789 28.3312 42.9189L39.3312 34.6989C40.6312 33.7189 41.6912 31.5989 41.6912 29.9789V13.7788C41.6912 11.5388 39.9712 9.03882 37.8712 8.25882L26.8712 4.13882C25.7512 3.69882 23.8712 3.69882 22.7312 4.11882Z" fill="#495057"/>
<path id="Vector_2" d="M22.13 28.4589C21.75 28.4589 21.37 28.3189 21.07 28.0189L17.85 24.7989C17.27 24.2189 17.27 23.2589 17.85 22.6789C18.43 22.0989 19.39 22.0989 19.97 22.6789L22.13 24.8389L29.67 17.2989C30.25 16.7189 31.21 16.7189 31.79 17.2989C32.37 17.8789 32.37 18.8389 31.79 19.4189L23.19 28.0189C22.89 28.3189 22.51 28.4589 22.13 28.4589Z" fill="#495057"/>
</g>
</svg>
